<?xml version="1.0" encoding="utf-8"?>
<!-- Generator: Adobe Illustrator 25.1.0, SVG Export Plug-In . SVG Version: 6.00 Build 0)  -->
<svg version="1.1" id="Layer_1" xmlns="http://www.w3.org/2000/svg" xmlns:xlink="http://www.w3.org/1999/xlink" x="0px" y="0px"
	 viewBox="0 0 1160 772" style="enable-background:new 0 0 1160 772;" xml:space="preserve">
<style type="text/css">
	.st0{fill:#FFFFFF;}
	.st1{fill:#D7E2D2;}
	.st2{fill:#F9B56C;}
	.st3{fill:#C5D9BE;}
	.st4{fill:#FFFCFD;}
	.st5{fill:#A9C29B;}
	.st6{fill:#005B54;}
	.st7{fill:#0C6859;}
	.st8{fill:#2F8E6E;}
	.st9{fill:#F09C53;}
	.st10{clip-path:url(#SVGID_2_);}
	.st11{fill:#404BA4;}
	.st12{fill:#9DBCFE;}
	.st13{fill:#B1E4F1;}
	.st14{clip-path:url(#SVGID_6_);}
	.st15{fill:#FF6F54;}
	.st16{fill:#FF6387;}
	.st17{fill:#FDC95A;}
	.st18{fill:#1E286D;}
	.st19{fill:#3D1303;}
	.st20{fill:#FD8972;}
	.st21{clip-path:url(#SVGID_10_);}
	.st22{fill:#DB9C7B;}
	.st23{clip-path:url(#SVGID_12_);}
	.st24{fill:#A15852;}
	.st25{opacity:0.3;}
	.st26{fill:#4E150C;}
	.st27{clip-path:url(#SVGID_14_);}
	.st28{fill:#2A775B;}
	.st29{clip-path:url(#SVGID_16_);}
	.st30{clip-path:url(#SVGID_18_);}
	.st31{fill:#1E2A6E;}
	.st32{fill:#FFD0BC;}
	.st33{clip-path:url(#SVGID_20_);}
	.st34{fill:#0B50AE;}
	.st35{clip-path:url(#SVGID_22_);}
	.st36{fill:#AEC3A4;}
</style>
<g>
	<rect class="st0" width="1160" height="772"/>
</g>
<g>
	<g>
		<g>
			<path class="st1" d="M543.44,436.42H311.41c-6.6,0-12-5.4-12-12V104.47c0-6.6,5.4-12,12-12h232.03c6.6,0,12,5.4,12,12v319.95
				C555.44,431.02,550.04,436.42,543.44,436.42z"/>
		</g>
		<g>
			<path class="st2" d="M522.25,127.51H332.43c-1.92,0-3.49-1.57-3.49-3.49l0,0c0-1.92,1.57-3.49,3.49-3.49h189.82
				c1.92,0,3.49,1.57,3.49,3.49l0,0C525.74,125.93,524.17,127.51,522.25,127.51z"/>
		</g>
		<g>
			<g>
				<path class="st3" d="M335.41,173.58h-14.42c-2.76,0-5.02-2.26-5.02-5.02v-14.42c0-2.76,2.26-5.02,5.02-5.02h14.42
					c2.76,0,5.02,2.26,5.02,5.02v14.42C340.43,171.32,338.17,173.58,335.41,173.58z"/>
			</g>
			<g>
				<path class="st3" d="M335.41,205.59h-14.42c-2.76,0-5.02-2.26-5.02-5.02v-14.42c0-2.76,2.26-5.02,5.02-5.02h14.42
					c2.76,0,5.02,2.26,5.02,5.02v14.42C340.43,203.33,338.17,205.59,335.41,205.59z"/>
			</g>
			<g>
				<path class="st3" d="M335.41,237.59h-14.42c-2.76,0-5.02-2.26-5.02-5.02v-14.42c0-2.76,2.26-5.02,5.02-5.02h14.42
					c2.76,0,5.02,2.26,5.02,5.02v14.42C340.43,235.33,338.17,237.59,335.41,237.59z"/>
			</g>
			<g>
				<g>
					<path class="st4" d="M523.49,159.65H360.25c-1.24,0-2.25-1.01-2.25-2.25l0,0c0-1.24,1.01-2.25,2.25-2.25h163.24
						c1.24,0,2.25,1.01,2.25,2.25l0,0C525.74,158.63,524.73,159.65,523.49,159.65z"/>
				</g>
				<g>
					<path class="st4" d="M523.49,167.56H360.25c-1.24,0-2.25-1.01-2.25-2.25l0,0c0-1.24,1.01-2.25,2.25-2.25h163.24
						c1.24,0,2.25,1.01,2.25,2.25l0,0C525.74,166.54,524.73,167.56,523.49,167.56z"/>
				</g>
			</g>
			<g>
				<g>
					<path class="st4" d="M523.49,191.65H360.25c-1.24,0-2.25-1.01-2.25-2.25l0,0c0-1.24,1.01-2.25,2.25-2.25h163.24
						c1.24,0,2.25,1.01,2.25,2.25l0,0C525.74,190.64,524.73,191.65,523.49,191.65z"/>
				</g>
				<g>
					<path class="st4" d="M523.49,199.56H360.25c-1.24,0-2.25-1.01-2.25-2.25l0,0c0-1.24,1.01-2.25,2.25-2.25h163.24
						c1.24,0,2.25,1.01,2.25,2.25l0,0C525.74,198.55,524.73,199.56,523.49,199.56z"/>
				</g>
			</g>
			<g>
				<g>
					<path class="st4" d="M523.49,223.66H360.25c-1.24,0-2.25-1.01-2.25-2.25l0,0c0-1.24,1.01-2.25,2.25-2.25h163.24
						c1.24,0,2.25,1.01,2.25,2.25l0,0C525.74,222.64,524.73,223.66,523.49,223.66z"/>
				</g>
				<g>
					<path class="st4" d="M523.49,231.57H360.25c-1.24,0-2.25-1.01-2.25-2.25l0,0c0-1.24,1.01-2.25,2.25-2.25h163.24
						c1.24,0,2.25,1.01,2.25,2.25l0,0C525.74,230.55,524.73,231.57,523.49,231.57z"/>
				</g>
			</g>
		</g>
		<g>
			<path class="st5" d="M522.71,259.39h-72.93c-1.67,0-3.03-1.37-3.03-3.03l0,0c0-1.67,1.37-3.03,3.03-3.03h72.93
				c1.67,0,3.03,1.37,3.03,3.03l0,0C525.74,258.02,524.37,259.39,522.71,259.39z"/>
		</g>
		<g>
			<path class="st2" d="M522.52,286.88H332.7c-1.92,0-3.49-1.57-3.49-3.49l0,0c0-1.92,1.57-3.49,3.49-3.49h189.82
				c1.92,0,3.49,1.57,3.49,3.49l0,0C526.02,285.31,524.44,286.88,522.52,286.88z"/>
		</g>
		<g>
			<g>
				<path class="st3" d="M335.68,332.96h-14.42c-2.76,0-5.02-2.26-5.02-5.02v-14.42c0-2.76,2.26-5.02,5.02-5.02h14.42
					c2.76,0,5.02,2.26,5.02,5.02v14.42C340.7,330.7,338.45,332.96,335.68,332.96z"/>
			</g>
			<g>
				<path class="st3" d="M335.68,364.96h-14.42c-2.76,0-5.02-2.26-5.02-5.02v-14.42c0-2.76,2.26-5.02,5.02-5.02h14.42
					c2.76,0,5.02,2.26,5.02,5.02v14.42C340.7,362.7,338.45,364.96,335.68,364.96z"/>
			</g>
			<g>
				<path class="st3" d="M335.68,396.97h-14.42c-2.76,0-5.02-2.26-5.02-5.02v-14.42c0-2.76,2.26-5.02,5.02-5.02h14.42
					c2.76,0,5.02,2.26,5.02,5.02v14.42C340.7,394.71,338.45,396.97,335.68,396.97z"/>
			</g>
			<g>
				<g>
					<path class="st4" d="M523.76,319.03H360.52c-1.24,0-2.25-1.01-2.25-2.25l0,0c0-1.24,1.01-2.25,2.25-2.25h163.24
						c1.24,0,2.25,1.01,2.25,2.25l0,0C526.02,318.01,525,319.03,523.76,319.03z"/>
				</g>
				<g>
					<path class="st4" d="M523.76,326.93H360.52c-1.24,0-2.25-1.01-2.25-2.25l0,0c0-1.24,1.01-2.25,2.25-2.25h163.24
						c1.24,0,2.25,1.01,2.25,2.25l0,0C526.02,325.92,525,326.93,523.76,326.93z"/>
				</g>
			</g>
			<g>
				<g>
					<path class="st4" d="M523.76,351.03H360.52c-1.24,0-2.25-1.01-2.25-2.25l0,0c0-1.24,1.01-2.25,2.25-2.25h163.24
						c1.24,0,2.25,1.01,2.25,2.25l0,0C526.02,350.02,525,351.03,523.76,351.03z"/>
				</g>
				<g>
					<path class="st4" d="M523.76,358.94H360.52c-1.24,0-2.25-1.01-2.25-2.25l0,0c0-1.24,1.01-2.25,2.25-2.25h163.24
						c1.24,0,2.25,1.01,2.25,2.25l0,0C526.02,357.92,525,358.94,523.76,358.94z"/>
				</g>
			</g>
			<g>
				<g>
					<path class="st4" d="M523.76,383.03H360.52c-1.24,0-2.25-1.01-2.25-2.25l0,0c0-1.24,1.01-2.25,2.25-2.25h163.24
						c1.24,0,2.25,1.01,2.25,2.25l0,0C526.02,382.02,525,383.03,523.76,383.03z"/>
				</g>
				<g>
					<path class="st4" d="M523.76,390.94H360.52c-1.24,0-2.25-1.01-2.25-2.25l0,0c0-1.24,1.01-2.25,2.25-2.25h163.24
						c1.24,0,2.25,1.01,2.25,2.25l0,0C526.02,389.93,525,390.94,523.76,390.94z"/>
				</g>
			</g>
		</g>
		<g>
			<path class="st5" d="M522.98,418.76h-72.93c-1.67,0-3.03-1.37-3.03-3.03l0,0c0-1.67,1.37-3.03,3.03-3.03h72.93
				c1.67,0,3.03,1.37,3.03,3.03l0,0C526.02,417.4,524.65,418.76,522.98,418.76z"/>
		</g>
		<g>
			<g>
				<path class="st5" d="M802.22,400.65H545.63c-6.6,0-12-5.4-12-12V249.59c0-6.6,5.4-12,12-12h256.59c6.6,0,12,5.4,12,12v139.06
					C814.22,395.25,808.82,400.65,802.22,400.65z"/>
			</g>
			<g>
				<path class="st2" d="M596.46,290.38h-37.01c-3.58,0-6.51-2.93-6.51-6.51V265.9c0-3.58,2.93-6.51,6.51-6.51h37.01
					c3.58,0,6.51,2.93,6.51,6.51v17.97C602.97,287.45,600.04,290.38,596.46,290.38z"/>
			</g>
			<g>
				<g>
					
						<ellipse transform="matrix(0.7071 -0.7071 0.7071 0.7071 -38.3087 650.315)" class="st4" cx="765.85" cy="371.4" rx="14.71" ry="14.71"/>
				</g>
				<g>
					
						<ellipse transform="matrix(0.2312 -0.9729 0.9729 0.2312 238.7506 1044.939)" class="st3" cx="780.56" cy="371.4" rx="14.71" ry="14.71"/>
				</g>
			</g>
			<g>
				<g>
					<path class="st2" d="M668.41,271.76h-50.67c-1.14,0-2.07-0.93-2.07-2.07l0,0c0-1.14,0.93-2.07,2.07-2.07h50.67
						c1.14,0,2.07,0.93,2.07,2.07l0,0C670.48,270.82,669.55,271.76,668.41,271.76z"/>
				</g>
				<g>
					<path class="st2" d="M726.67,271.76h-50.67c-1.14,0-2.07-0.93-2.07-2.07l0,0c0-1.14,0.93-2.07,2.07-2.07h50.67
						c1.14,0,2.07,0.93,2.07,2.07l0,0C728.74,270.82,727.81,271.76,726.67,271.76z"/>
				</g>
				<g>
					<path class="st3" d="M681.24,282.15h-63.09c-1.37,0-2.48-1.12-2.48-2.48l0,0c0-1.37,1.12-2.48,2.48-2.48h63.09
						c1.37,0,2.48,1.12,2.48,2.48l0,0C683.72,281.03,682.6,282.15,681.24,282.15z"/>
				</g>
			</g>
			<g>
				<g>
					<g>
						<path class="st3" d="M566.01,330.02L566.01,330.02c-2.84,0-5.16-2.32-5.16-5.16v-5.17c0-2.84,2.32-5.16,5.16-5.16l0,0
							c2.84,0,5.16,2.32,5.16,5.16v5.17C571.17,327.69,568.85,330.02,566.01,330.02z"/>
					</g>
					<g>
						<path class="st3" d="M578.81,330.02h-0.77c-2.63,0-4.78-2.15-4.78-4.78v-5.94c0-2.63,2.15-4.78,4.78-4.78h0.77
							c2.63,0,4.78,2.15,4.78,4.78v5.94C583.59,327.87,581.44,330.02,578.81,330.02z"/>
					</g>
					<g>
						<path class="st3" d="M591.02,330.02L591.02,330.02c-2.84,0-5.16-2.32-5.16-5.16v-5.17c0-2.84,2.32-5.16,5.16-5.16l0,0
							c2.84,0,5.16,2.32,5.16,5.16v5.17C596.19,327.69,593.86,330.02,591.02,330.02z"/>
					</g>
					<g>
						<path class="st3" d="M603.78,330.02L603.78,330.02c-2.84,0-5.16-2.32-5.16-5.16v-5.17c0-2.84,2.32-5.16,5.16-5.16l0,0
							c2.84,0,5.16,2.32,5.16,5.16v5.17C608.95,327.69,606.62,330.02,603.78,330.02z"/>
					</g>
				</g>
				<g>
					<g>
						<path class="st3" d="M622.95,330.02L622.95,330.02c-2.84,0-5.16-2.32-5.16-5.16v-5.17c0-2.84,2.32-5.16,5.16-5.16l0,0
							c2.84,0,5.16,2.32,5.16,5.16v5.17C628.11,327.69,625.79,330.02,622.95,330.02z"/>
					</g>
					<g>
						<path class="st3" d="M635.36,330.02L635.36,330.02c-2.84,0-5.16-2.32-5.16-5.16v-5.17c0-2.84,2.32-5.16,5.16-5.16l0,0
							c2.84,0,5.16,2.32,5.16,5.16v5.17C640.52,327.69,638.2,330.02,635.36,330.02z"/>
					</g>
					<g>
						<path class="st3" d="M647.96,330.02L647.96,330.02c-2.84,0-5.16-2.32-5.16-5.16v-5.17c0-2.84,2.32-5.16,5.16-5.16l0,0
							c2.84,0,5.16,2.32,5.16,5.16v5.17C653.12,327.69,650.8,330.02,647.96,330.02z"/>
					</g>
					<g>
						<path class="st3" d="M660.72,330.02L660.72,330.02c-2.84,0-5.16-2.32-5.16-5.16v-5.17c0-2.84,2.32-5.16,5.16-5.16l0,0
							c2.84,0,5.16,2.32,5.16,5.16v5.17C665.88,327.69,663.56,330.02,660.72,330.02z"/>
					</g>
				</g>
				<g>
					<g>
						<path class="st3" d="M679.78,330.18L679.78,330.18c-2.84,0-5.16-2.32-5.16-5.16v-5.17c0-2.84,2.32-5.16,5.16-5.16l0,0
							c2.84,0,5.16,2.32,5.16,5.16v5.17C684.94,327.85,682.62,330.18,679.78,330.18z"/>
					</g>
					<g>
						<path class="st3" d="M692.2,330.18L692.2,330.18c-2.84,0-5.16-2.32-5.16-5.16v-5.17c0-2.84,2.32-5.16,5.16-5.16l0,0
							c2.84,0,5.16,2.32,5.16,5.16v5.17C697.36,327.85,695.04,330.18,692.2,330.18z"/>
					</g>
					<g>
						<path class="st3" d="M704.8,330.18L704.8,330.18c-2.84,0-5.16-2.32-5.16-5.16v-5.17c0-2.84,2.32-5.16,5.16-5.16l0,0
							c2.84,0,5.16,2.32,5.16,5.16v5.17C709.96,327.85,707.64,330.18,704.8,330.18z"/>
					</g>
					<g>
						<path class="st3" d="M717.56,330.18L717.56,330.18c-2.84,0-5.16-2.32-5.16-5.16v-5.17c0-2.84,2.32-5.16,5.16-5.16l0,0
							c2.84,0,5.16,2.32,5.16,5.16v5.17C722.72,327.85,720.4,330.18,717.56,330.18z"/>
					</g>
				</g>
				<g>
					<g>
						<path class="st3" d="M737.17,330.18L737.17,330.18c-2.84,0-5.16-2.32-5.16-5.16v-5.17c0-2.84,2.32-5.16,5.16-5.16l0,0
							c2.84,0,5.16,2.32,5.16,5.16v5.17C742.33,327.85,740.01,330.18,737.17,330.18z"/>
					</g>
					<g>
						<path class="st3" d="M749.58,330.18L749.58,330.18c-2.84,0-5.16-2.32-5.16-5.16v-5.17c0-2.84,2.32-5.16,5.16-5.16l0,0
							c2.84,0,5.16,2.32,5.16,5.16v5.17C754.75,327.85,752.42,330.18,749.58,330.18z"/>
					</g>
					<g>
						<path class="st3" d="M762.18,330.18L762.18,330.18c-2.84,0-5.16-2.32-5.16-5.16v-5.17c0-2.84,2.32-5.16,5.16-5.16l0,0
							c2.84,0,5.16,2.32,5.16,5.16v5.17C767.35,327.85,765.02,330.18,762.18,330.18z"/>
					</g>
					<g>
						<path class="st3" d="M774.94,330.18L774.94,330.18c-2.84,0-5.16-2.32-5.16-5.16v-5.17c0-2.84,2.32-5.16,5.16-5.16l0,0
							c2.84,0,5.16,2.32,5.16,5.16v5.17C780.11,327.85,777.78,330.18,774.94,330.18z"/>
					</g>
				</g>
			</g>
		</g>
	</g>
	<g>
		<g>
			<g>
				<g>
					<path class="st6" d="M496.65,548.4c-1.34-9.99,1.35-13.68,4.53-14.11c3.17-0.43,5.62,2.58,6.97,12.56
						c1.34,9.99-3.31,18.85-3.31,18.85S497.99,558.39,496.65,548.4z"/>
				</g>
				<g>
					<path class="st7" d="M508.48,511.58c-1.34-9.99,1.35-13.68,4.53-14.11c3.17-0.43,5.62,2.58,6.97,12.56
						c1.34,9.99-3.31,18.85-3.31,18.85S509.83,521.56,508.48,511.58z"/>
				</g>
				<g>
					<path class="st8" d="M530.21,485.07c-0.9-6.67,0.9-9.14,3.02-9.42s3.75,1.72,4.65,8.39c0.9,6.67-2.21,12.59-2.21,12.59
						S531.1,491.74,530.21,485.07z"/>
				</g>
				<g>
					<path class="st6" d="M482.04,651.13c2.23-14.35,5.82-33.93,8.94-47.86c1.01-4.05,3.48-13.83,4.45-17.71
						c3.38-12.69,7.49-25.34,11.91-37.72c8.23-21.53,18.4-43.39,32.22-61.92c3.66-4.64,7.69-9.77,12.22-13.66
						c0.32-0.27,0.8-0.24,1.07,0.08c0.27,0.31,0.24,0.78-0.06,1.05c-5.56,5.26-10.54,12.4-14.73,18.84
						c-11.63,18.34-20.32,39.44-26.95,60.1c-4.17,13.3-7.87,26.98-10.66,40.65c-4.12,18.19-7.23,40.67-9.46,59.29
						C490.25,658.33,481.25,657.33,482.04,651.13L482.04,651.13z"/>
				</g>
				<g>
					<path class="st6" d="M568.27,459.64c12.46-4.68,18.01-2.31,19.49,1.64c1.48,3.94-1.67,7.97-14.13,12.65
						c-12.46,4.68-25.25,1.32-25.25,1.32S555.8,464.32,568.27,459.64z"/>
				</g>
				<g>
					<path class="st7" d="M553.64,473.61c10.33-3.97,15.42-0.85,17.14,3.63c1.72,4.48-0.58,8.61-10.91,12.58
						c-10.33,3.97-21.82-0.92-21.82-0.92S543.31,477.58,553.64,473.61z"/>
				</g>
				<g>
					<path class="st7" d="M538.62,501.15c10.42-3.27,15.24,0.13,16.65,4.64c1.42,4.51-1.11,8.44-11.53,11.71
						c-10.42,3.27-21.43-2.26-21.43-2.26S528.2,504.42,538.62,501.15z"/>
				</g>
				<g>
					<path class="st7" d="M527.42,528.43c9.61-3.01,13.71-0.98,14.67,2.08c0.96,3.06-1.59,5.98-11.2,8.99
						c-9.61,3.01-19.14-0.08-19.14-0.08S517.8,531.45,527.42,528.43z"/>
				</g>
			</g>
			<g>
				<g>
					<path class="st6" d="M527.83,389.47c-13.06,18.99-21.77,40.8-29.12,62.55c-14.24,44.01-20.47,90.85-21.85,137
						c-0.32,4.97-0.13,12.41-0.14,17.41c-0.24,16.81,0.93,35.5,1.8,52.2c0.24,2.55-1.7,4.83-4.27,4.95
						c-2.51,0.13-4.64-1.84-4.73-4.35c-0.4-11.75-0.89-23.49-1.21-35.23c0.06-6.1,0.24-20.62,0.3-26.45
						c-0.02-2.22,0.14-6.6,0.31-8.81c2.44-52.64,10.88-105.97,30.46-155.12c6.72-16.39,14.31-32.63,24.72-47.06
						C526.01,384.23,529.72,386.86,527.83,389.47L527.83,389.47z"/>
				</g>
				<g>
					<path class="st6" d="M520.85,369.68c7.99-15.97,15.61-18.71,20.66-16.18c5.05,2.53,5.63,9.36-2.36,25.34
						c-7.99,15.97-23.62,24.34-23.62,24.34S512.86,385.65,520.85,369.68z"/>
				</g>
				<g>
					<path class="st7" d="M517.69,421.89c10.33-3.97,15.42-0.85,17.14,3.63c1.72,4.48-0.58,8.61-10.91,12.58
						c-10.33,3.97-21.82-0.92-21.82-0.92S507.36,425.86,517.69,421.89z"/>
				</g>
				<g>
					<path class="st8" d="M478.14,432.01c-3.17-12.85,0.39-18.2,5.05-19.35c4.66-1.15,8.64,2.34,11.82,15.18
						c3.17,12.85-2.68,25.35-2.68,25.35S481.32,444.86,478.14,432.01z"/>
				</g>
				<g>
					<path class="st7" d="M469.15,475.78c-5.67-8.37-4.53-13.14-1.5-15.2c3.03-2.05,6.81-0.61,12.48,7.76
						c5.67,8.37,4.78,18.87,4.78,18.87S474.82,484.15,469.15,475.78z"/>
				</g>
				<g>
					<path class="st8" d="M461.59,517.59c-5.5-8.11-4.42-12.72-1.52-14.69c2.91-1.97,6.55-0.56,12.04,7.55
						c5.5,8.11,4.69,18.25,4.69,18.25S467.09,525.7,461.59,517.59z"/>
				</g>
				<g>
					<path class="st8" d="M505.42,456.52c10.33-3.97,15.42-0.85,17.14,3.63c1.72,4.48-0.58,8.61-10.91,12.58
						c-10.33,3.97-21.82-0.92-21.82-0.92S495.09,460.49,505.42,456.52z"/>
				</g>
				<g>
					<path class="st7" d="M489.63,497.87c6.73-5.1,11.13-3.88,13.34-0.97c2.21,2.92,1.4,6.44-5.34,11.53
						c-6.73,5.1-16.19,3.95-16.19,3.95S482.9,502.96,489.63,497.87z"/>
				</g>
			</g>
			<g>
				<g>
					<path class="st6" d="M383.85,511.76c23.25-0.22,45.4,12.8,58.23,31.89c11.83,17.38,17.21,38.37,19.33,59.06
						c1.75,16.87,1.36,33.93,0,50.75c-0.2,2.48-2.38,4.33-4.86,4.13c-2.54-0.2-4.42-2.5-4.11-5.03c1.63-14.55,2.45-29.18,1.8-43.74
						c-0.04-3.02-0.54-7.83-0.78-10.88c-0.59-6.14-1.75-12.72-3.02-18.78c-2.7-11.3-6.8-22.56-13.1-32.35
						c-11.36-18.13-31.77-30.85-53.32-31.36C381.59,515.59,381.33,511.89,383.85,511.76L383.85,511.76z"/>
				</g>
				<g>
					<path class="st6" d="M363.57,524.21c-13.11,2.32-18.13-1.03-18.86-5.18c-0.73-4.15,3.1-7.53,16.21-9.85
						c13.11-2.32,25.06,3.32,25.06,3.32S376.68,521.89,363.57,524.21z"/>
				</g>
				<g>
					<path class="st7" d="M399.22,537.51c-10.42,6.23-15.78,5.02-17.75,1.72c-1.97-3.3,0.19-7.43,10.61-13.66
						c10.42-6.23,22.43-5.32,22.43-5.32S409.64,531.28,399.22,537.51z"/>
				</g>
				<g>
					<path class="st8" d="M421.91,560.22c-12.09-1.11-15.7-5.26-15.35-9.08c0.35-3.83,4.54-5.88,16.62-4.77
						c12.09,1.11,21.25,8.94,21.25,8.94S434,561.33,421.91,560.22z"/>
				</g>
				<g>
					<path class="st8" d="M385.86,500.14c-5.34-10.9-3.68-16.14-0.23-17.83c3.45-1.69,7.38,0.81,12.72,11.71
						c5.34,10.9,3.42,22.8,3.42,22.8S391.2,511.04,385.86,500.14z"/>
				</g>
				<g>
					<path class="st7" d="M416.7,509.52c-2.25-11.93,0.74-16.54,4.51-17.26c3.77-0.71,6.9,2.75,9.16,14.67
						c2.25,11.93-2.75,22.89-2.75,22.89S418.96,521.45,416.7,509.52z"/>
				</g>
			</g>
		</g>
		<g>
			<g>
				<g>
					<path class="st2" d="M490.28,677.77h-30.52c-7.92,0-14.53-6.07-15.21-13.98l-4.89-56.87h70.72l-4.89,56.87
						C504.81,671.69,498.2,677.77,490.28,677.77z"/>
				</g>
				<g>
					<path class="st9" d="M500.1,606.92l-4.37,50.76c-0.68,7.91-7.29,13.98-15.21,13.98h-30.52c-0.89,0-1.76-0.08-2.61-0.23
						c2.78,3.85,7.31,6.34,12.37,6.34h30.52c7.92,0,14.53-6.07,15.21-13.98l4.89-56.87H500.1z"/>
				</g>
				<g>
					<path class="st9" d="M490.28,678.1h-30.52c-8.16,0-14.84-6.14-15.54-14.28l-4.93-57.23h71.44l-0.03,0.36l-4.89,56.87
						C505.12,671.96,498.44,678.1,490.28,678.1z M440.02,607.25l4.86,56.51c0.67,7.8,7.07,13.67,14.88,13.67h30.52
						c7.81,0,14.21-5.88,14.88-13.67l4.86-56.51H440.02z"/>
				</g>
				<g>
					<path class="st9" d="M516.44,609.98h-81.61c-2.38,0-4.31-1.93-4.31-4.31v-7.26c0-2.38,1.93-4.31,4.31-4.31h81.61
						c2.38,0,4.31,1.93,4.31,4.31v7.26C520.75,608.05,518.82,609.98,516.44,609.98z"/>
				</g>
				<g>
					<path class="st2" d="M434.83,594.1c-2.38,0-4.31,1.93-4.31,4.31v1.71h81.16c2.38,0,4.31-1.93,4.31-4.31v-1.71H434.83z"/>
				</g>
				<g>
					<path class="st9" d="M516.44,610.31h-81.61c-2.56,0-4.64-2.08-4.64-4.64v-7.26c0-0.18,0.15-0.33,0.33-0.33
						c0.18,0,0.33,0.15,0.33,0.33v7.26c0,2.19,1.79,3.98,3.98,3.98h81.61c2.19,0,3.98-1.78,3.98-3.98v-7.26
						c0-2.19-1.78-3.98-3.98-3.98h-30.79c-0.18,0-0.33-0.15-0.33-0.33c0-0.18,0.15-0.33,0.33-0.33h30.79c2.56,0,4.64,2.08,4.64,4.64
						v7.26C521.08,608.23,519,610.31,516.44,610.31z"/>
				</g>
			</g>
		</g>
	</g>
	<g>
		<defs>
			<rect id="SVGID_1_" x="82.16" y="92.47" width="995.68" height="584.9"/>
		</defs>
		<clipPath id="SVGID_2_">
			<use xlink:href="#SVGID_1_"  style="overflow:visible;"/>
		</clipPath>
		<g class="st10">
			<g>
				<g>
					<g>
						<rect x="832.44" y="828.09" class="st11" width="25.35" height="240.75"/>
					</g>
					<g>
						<path class="st12" d="M858.04,1077.11h-25.83c-3.31,0-6-2.69-6-6v-60.8c0-3.31,2.69-6,6-6h25.83c3.31,0,6,2.69,6,6v60.8
							C864.04,1074.42,861.35,1077.11,858.04,1077.11z"/>
					</g>
					<g>
						<g>
							<path class="st11" d="M932.4,1094.48H757.84v-5.38c0-10.28,8.33-18.61,18.61-18.61h137.33c10.28,0,18.61,8.33,18.61,18.61
								V1094.48z"/>
						</g>
						<g>
							<path class="st13" d="M786.55,1078.21h137.33c1.94,0,3.8,0.3,5.56,0.84c-3.31-5.15-9.08-8.57-15.65-8.57H776.45
								c-10.28,0-18.61,8.33-18.61,18.61v5.38h10.26C769.26,1085.31,777.07,1078.21,786.55,1078.21z"/>
						</g>
					</g>
				</g>
				<g>
					<g>
						<g>
							<defs>
								<path id="SVGID_3_" d="M962.95,615.34H754.75c-12.49,0-23.02,9.31-24.55,21.71L708.27,815.2
									c-2.3,18.65,12.25,35.1,31.04,35.1h148.46c42.35,0,77.98-31.73,82.87-73.8l15.68-134.91
									C987.95,627.61,977.02,615.34,962.95,615.34z"/>
							</defs>
							<clipPath id="SVGID_4_">
								<use xlink:href="#SVGID_3_"  style="overflow:visible;"/>
							</clipPath>
						</g>
					</g>
					<g>
						<g>
							<g>
								<path class="st9" d="M979.49,615.34h-16.55c14.07,0,25,12.27,23.38,26.25L970.65,776.5c-4.89,42.07-40.52,73.8-82.87,73.8
									h16.55c42.35,0,77.98-31.73,82.87-73.8l15.68-134.91C1004.49,627.61,993.57,615.34,979.49,615.34z"/>
							</g>
						</g>
						<g>
							<g>
								<path class="st2" d="M962.95,615.34H754.75c-12.49,0-23.02,9.31-24.55,21.71L708.27,815.2c-2.3,18.65,12.25,35.1,31.04,35.1
									h148.46c42.35,0,77.98-31.73,82.87-73.8l15.68-134.91C987.95,627.61,977.02,615.34,962.95,615.34z"/>
							</g>
						</g>
						<g>
							<defs>
								<path id="SVGID_5_" d="M962.95,615.34H754.75c-12.49,0-23.02,9.31-24.55,21.71L708.27,815.2
									c-2.3,18.65,12.25,35.1,31.04,35.1h148.46c42.35,0,77.98-31.73,82.87-73.8l15.68-134.91
									C987.95,627.61,977.02,615.34,962.95,615.34z"/>
							</defs>
							<clipPath id="SVGID_6_">
								<use xlink:href="#SVGID_5_"  style="overflow:visible;"/>
							</clipPath>
							<g class="st14">
								<g>
									<path class="st9" d="M890.77,832.75H693.85v-85.54h264.64v17.82C958.48,802.43,928.17,832.75,890.77,832.75z"/>
								</g>
							</g>
						</g>
					</g>
					<g>
						<g>
							<defs>
								<path id="SVGID_7_" d="M962.95,615.34H754.75c-12.49,0-23.02,9.31-24.55,21.71L708.27,815.2
									c-2.3,18.65,12.25,35.1,31.04,35.1h148.46c42.35,0,77.98-31.73,82.87-73.8l15.68-134.91
									C987.95,627.61,977.02,615.34,962.95,615.34z"/>
							</defs>
							<clipPath id="SVGID_8_">
								<use xlink:href="#SVGID_7_"  style="overflow:visible;"/>
							</clipPath>
						</g>
					</g>
				</g>
				<g>
					<path class="st15" d="M808.49,448.72c0,0-32.87,24.28-38.61,34.45c-13.07,23.17-20.7,71.73-20.7,128.86
						c0,2.79-50.66,33-50.66,33l11.62,32.54c0,0,63.69-20.16,72.97-36.25c9.28-16.09,13.32-100.65,13.32-100.65L808.49,448.72z"/>
				</g>
				<g>
					<path class="st16" d="M482.48,1051.78c0,0-25.13,35.18-40.2,44.51l6.46,16.51l51.69-6.46c0,0,0-29.43,10.77-45.94
						C521.97,1043.89,482.48,1051.78,482.48,1051.78z"/>
				</g>
				<g>
					<path class="st16" d="M634.67,1034.56c0,0-0.72,17.95,6.46,28l-37.33,51.69l-22.97-1.44l0.98-19.31
						c0,0,12.66-12.99,15.53-35.25C600.21,1035.99,634.67,1034.56,634.67,1034.56z"/>
				</g>
				<g>
					<g>
						<path class="st17" d="M651.27,1075.66c0,0-0.24-14.69-13.74-16.64l-31.47,49.22c-4.07,0.36-5.77,0.51-9.84,0.87l-14.41-15.61
							l-4.22,3.8c-4.64,4.17-10.43,6.82-16.57,7.95c-13.16,2.43-21.16,7.8-22.81,19.75c-0.01,0.04,0.02,0.07,0.06,0.07l58.81,1.21
							c3.99,0.08,7.85-1.42,10.73-4.18L651.27,1075.66z"/>
					</g>
					<g>
						<path class="st18" d="M649.9,1069.29l-43.27,46.24c-2.88,2.76-6.74,4.26-10.73,4.18l-55.7-1.15
							c-0.87,1.94-1.65,3.96-1.99,6.43c-0.01,0.04,0.02,0.07,0.06,0.07l58.81,1.21c3.99,0.08,7.85-1.42,10.73-4.17l43.46-46.44
							C651.27,1075.66,651.15,1072.7,649.9,1069.29z"/>
					</g>
				</g>
				<g>
					<g>
						<path class="st17" d="M502.77,1098.61c0,0-23.62,10.78-51.63,10.22v-21.48l-33.19,6.8c-11.73,2.4-21.11,10.74-25.07,21.65
							c-1.36,3.75,1.67,7.69,5.66,7.69h45.56h7.04h56.32C507.46,1123.49,511.69,1108.94,502.77,1098.61z"/>
					</g>
					<g>
						<path class="st18" d="M449.79,1116.66h-7.66H392.8c-0.64,3.46,2.06,6.83,5.74,6.83h45.56h7.04h56.32c0,0,0.77-2.85,0.93-6.83
							H449.79z"/>
					</g>
				</g>
				<g>
					<path class="st6" d="M796.91,651.22l-7.56,32.9c0,0-168.09,8.53-221.58,48.61c-37.35,27.99-34.31,207.06-93.89,325.51
						l36.61,12.2c0,0,99.64-151.63,96.43-270.76l167.05-17.19c20.59-2.12,39.8-11.33,54.34-26.05h0
						c23.36-23.65,31.63-58.32,21.47-89.97l4.56-13.11L796.91,651.22z"/>
				</g>
				<g>
					<path class="st8" d="M934.15,738.29c5.32,12.63,6.4,26.84,2.01,39.83c-5.53,16.36-20.23,34.84-56.94,43.36
						c-73.41,17.04-228.9-0.24-228.9-0.24s7.78,49.02-3.45,115.69c-11.23,66.67-10.05,111.27-10.05,111.27l-41.58,9.99
						c0,0-0.12-73.74-7.23-116.23c-7.11-42.49-29.31-173.86-19.04-191.4c10.27-17.55,227.64-38.61,256.53-32.53l4.42-71.83
						l83.27,6.46L934.15,738.29z"/>
				</g>
				<g>
					<path class="st19" d="M857,290.95c0,0-71.7,4.06-75.08,37.2c-3.38,33.14,20.29,23,6.09,41.94
						c-14.2,18.94-36.92,22.5-31.79,62.23c0.03,0.21,0.06,0.42,0.08,0.62c1.88,13.23,13.33,22.99,26.69,23.23l11.03,0.2
						c45.22,0.82,90.13-7.57,132.01-24.66l16.85-6.87c7.89-3.22,13.54-10.32,14.82-18.74c1.5-9.85,1.53-22.24-6.01-27.9
						c-13.53-10.15-25.03-4.06-27.06-11.5c-2.03-7.44,6.76-33.14-6.09-39.23c-12.85-6.09-25.03,0.68-26.38-7.44
						C890.82,311.91,890.15,284.86,857,290.95z"/>
				</g>
				<g>
					<path class="st0" d="M791.63,463.63c-1.32,1.39-2.23,3.12-2.22,5.04c0.02,8.04-0.63,30.79-7.98,46.3
						c-9.07,19.12-12.95,38.87-8.28,49.53c4.67,10.66,13.51,20.1,16.09,28.99c5.58,19.28,9.17,41.16,6.8,61.95l115.13,4.99
						c0,0-3.71-43.94,17.33-107.07c10.05-30.16-8.72-89.47-5.81-107.25C922.67,446.1,847.95,404.39,791.63,463.63z"/>
				</g>
				<g>
					<path class="st20" d="M858.91,432c0,0-33.64-3.33-67.29,31.63c-1.33,1.38-2.23,3.12-2.22,5.04c0.02,8.04-0.63,30.79-7.98,46.3
						c-9.07,19.12-12.95,38.87-8.28,49.53c4.67,10.66,13.51,20.1,16.09,28.99c5.58,19.28-6.27,76.21-8.65,97l39.8-3.56
						c-1.32-59.52,2.27-144.05,11.88-194.84c1.89-9.97,0.15-40.25,0.15-40.25L858.91,432z"/>
				</g>
				<g>
					<path class="st20" d="M922.67,446.1c0,0-28.6-15.96-63.76-14.11c20.27,18.5,5.57,27.86-1.11,54.59
						c-13.12,52.47-21.71,127.55-20.2,196.18l73.55-22.34c0,0-3.71-43.94,17.33-107.07C938.53,523.2,919.76,463.88,922.67,446.1z"/>
				</g>
				<g>
					<defs>
						<path id="SVGID_9_" d="M791.63,463.63c-1.32,1.39-2.23,3.12-2.22,5.04c0.02,8.04-0.63,30.79-7.98,46.3
							c-9.07,19.12-12.95,38.87-8.28,49.53c4.67,10.66,13.51,20.1,16.09,28.99c5.58,19.28,9.58,47.24,1.86,58.27l120.07,8.66
							c0,0-3.71-43.94,17.33-107.07c10.05-30.16-8.72-89.47-5.81-107.25C922.67,446.1,847.95,404.39,791.63,463.63z"/>
					</defs>
					<clipPath id="SVGID_10_">
						<use xlink:href="#SVGID_9_"  style="overflow:visible;"/>
					</clipPath>
					<g class="st21">
						<g>
							<path class="st15" d="M840.05,433.44c0,0-5.93,0-10.81,3.83c-4.88,3.83-16.38,57.98,19.17,32.88
								C883.97,445.06,840.05,433.44,840.05,433.44z"/>
						</g>
						<g>
							<path class="st15" d="M874.56,431.46c0,0,8.38-2.41,11.16,3.14c3.83,7.67,5.59,62.75-29.96,37.65
								C820.2,447.15,874.56,431.46,874.56,431.46z"/>
						</g>
					</g>
				</g>
				<g>
					<path class="st22" d="M880.02,437.21l-0.05-0.74c0.04-1.83-0.08-3.6-0.34-5.31l-4.44-69.87l-26.65,5.05l-10.22,66.38
						c-0.09,0.23-0.23,0.42-0.32,0.65c-5.79,14.58-1.66,29.91,9.23,34.24c10.89,4.33,24.42-3.99,30.21-18.57
						c1.58-3.97,2.36-7.98,2.53-11.83H880.02z"/>
				</g>
				<g>
					<defs>
						<path id="SVGID_11_" d="M880.02,437.21l-0.05-0.74c0.04-1.83-0.08-3.6-0.34-5.31l-4.44-69.87l-26.65,5.05l-10.22,66.38
							c-0.09,0.23-0.23,0.42-0.32,0.65c-5.79,14.58-1.66,29.91,9.23,34.24c10.89,4.33,24.42-3.99,30.21-18.57
							c1.58-3.97,2.36-7.98,2.53-11.83H880.02z"/>
					</defs>
					<clipPath id="SVGID_12_">
						<use xlink:href="#SVGID_11_"  style="overflow:visible;"/>
					</clipPath>
					<g class="st23">
						<path class="st24" d="M839.58,412.05c0,0,23.66-0.92,31.47-7.35c0,0-5.74,15.62-25.73,20.91
							C825.34,430.89,839.58,412.05,839.58,412.05z"/>
					</g>
				</g>
				<g>
					<g>
						<path class="st22" d="M859.6,414.55L859.6,414.55c-21.31,2.87-40.92-12.08-43.79-33.39l-8.97-66.59l77.18-10.4l8.97,66.59
							C895.86,392.07,880.91,411.68,859.6,414.55z"/>
					</g>
					<g>
						<path class="st22" d="M883.3,348.39c2.29-6.97,8.52-11.18,13.91-9.41c5.39,1.77,7.9,8.86,5.6,15.83
							c-2.29,6.97-8.52,11.18-13.91,9.41C883.52,362.45,881.01,355.36,883.3,348.39z"/>
					</g>
					<g>
						<g>
							<g>
								<path class="st4" d="M849.04,353.16c0,0,2.23-9.8,19.15-2.82C868.19,350.34,855.88,361.83,849.04,353.16z"/>
							</g>
							<g>
								<path class="st19" d="M849.06,353.21c-0.01-0.04-0.02-0.07-0.03-0.11c0.14-0.52,1.46-4.69,7.38-5.21
									c1.24,0.74,2.17,1.99,2.4,3.53c0.3,2.01-0.66,3.91-2.27,4.92C853.87,356.62,851.2,355.89,849.06,353.21z"/>
							</g>
							<g>
								<path class="st19" d="M849.03,353.64c-0.06,0-0.13-0.01-0.19-0.03c-0.28-0.1-0.42-0.42-0.32-0.69
									c0.86-2.31,2.39-3.93,4.56-4.82c6.06-2.49,14.96,1.58,15.33,1.75c0.27,0.13,0.39,0.45,0.26,0.72
									c-0.13,0.27-0.45,0.39-0.72,0.26c-0.09-0.04-8.86-4.05-14.47-1.73c-1.87,0.77-3.2,2.18-3.95,4.2
									C849.45,353.51,849.25,353.64,849.03,353.64z"/>
							</g>
						</g>
						<g>
							<g>
								<path class="st4" d="M815.98,357.57c0,0,1.99-8.76,17.11-2.52C833.08,355.06,822.09,365.32,815.98,357.57z"/>
							</g>
							<g>
								<path class="st19" d="M815.99,357.62c-0.01-0.03-0.02-0.06-0.02-0.1c0.13-0.47,1.3-4.19,6.59-4.66
									c1.11,0.66,1.94,1.78,2.14,3.16c0.26,1.79-0.59,3.49-2.03,4.4C820.29,360.67,817.91,360.02,815.99,357.62z"/>
							</g>
							<g>
								<path class="st19" d="M815.97,358.07c-0.06,0-0.13-0.01-0.19-0.03c-0.28-0.1-0.42-0.42-0.32-0.69
									c0.77-2.08,2.15-3.54,4.11-4.34c5.43-2.23,13.41,1.41,13.74,1.57c0.27,0.13,0.39,0.45,0.26,0.72
									c-0.13,0.27-0.45,0.39-0.72,0.26c-0.08-0.04-7.89-3.6-12.88-1.55c-1.66,0.68-2.84,1.93-3.5,3.72
									C816.39,357.93,816.19,358.07,815.97,358.07z"/>
							</g>
						</g>
						<g>
							<path class="st19" d="M839.36,382.73c-0.62,0-1.19-0.06-1.73-0.17c-0.87-0.18-1.61-0.81-1.97-1.67
								c-0.37-0.88-0.29-1.85,0.2-2.61c0.67-1.03,1.53-2.45,2.56-4.21c2.64-4.5-0.47-14.29-0.5-14.39c-0.18-0.57,0.13-1.18,0.7-1.36
								c0.57-0.18,1.18,0.13,1.36,0.7c0.14,0.44,3.43,10.8,0.31,16.14c-1.05,1.79-1.93,3.23-2.61,4.29
								c-0.12,0.19-0.09,0.44-0.02,0.6c0.09,0.21,0.24,0.35,0.42,0.39c1.45,0.3,4.17,0.19,8.92-2.06c0.54-0.26,1.18-0.03,1.44,0.51
								c0.26,0.54,0.03,1.18-0.51,1.44C844.55,381.93,841.68,382.73,839.36,382.73z"/>
						</g>
						<g>
							<path class="st19" d="M867.99,342.81c0,0-0.01,0-0.01,0l-20.55-0.24c-0.6-0.01-1.07-0.5-1.07-1.09
								c0.01-0.6,0.5-1.13,1.09-1.07l20.55,0.24c0.6,0.01,1.07,0.5,1.07,1.09C869.07,342.33,868.59,342.81,867.99,342.81z"/>
						</g>
						<g>
							<path class="st19" d="M815.69,348.13c-0.57,0-1.05-0.45-1.08-1.02c-0.03-0.6,0.43-1.1,1.02-1.14l15.79-0.83
								c0.62-0.05,1.1,0.43,1.14,1.02c0.03,0.6-0.43,1.1-1.02,1.14l-15.79,0.83C815.73,348.13,815.71,348.13,815.69,348.13z"/>
						</g>
						<g>
							<path class="st19" d="M847.04,395.58c-0.5,0-0.94-0.34-1.05-0.85c-0.13-0.58,0.24-1.16,0.82-1.29
								c0.09-0.02,9.25-2.15,12.68-10.95c0.22-0.56,0.84-0.83,1.4-0.61c0.56,0.22,0.83,0.84,0.61,1.4
								c-3.86,9.9-13.81,12.18-14.23,12.27C847.19,395.57,847.11,395.58,847.04,395.58z"/>
						</g>
						<g class="st25">
							<path class="st15" d="M857.14,371.89c2.06,3.29,7.6,3.53,12.36,0.55c4.77-2.99,6.97-8.07,4.91-11.36
								c-2.06-3.29-7.6-3.53-12.36-0.55C857.28,363.52,855.08,368.61,857.14,371.89z"/>
						</g>
					</g>
				</g>
				<g>
					<path class="st19" d="M808.19,369.71c0,0-16.35-36.96,44.01-45.68c0,0,28.17,27.63,51.19,20.79c0,0,5.25-54.93-35.25-61.76
						c-55.38-9.33-72.4,24.42-74.89,45.58C790.77,349.8,808.19,369.71,808.19,369.71z"/>
				</g>
				<g>
					<g>
						<path class="st26" d="M835.17,547.43c0,1.8-1.46,3.25-3.25,3.25c-1.8,0-3.25-1.46-3.25-3.25c0-1.8,1.46-3.25,3.25-3.25
							C833.71,544.17,835.17,545.63,835.17,547.43z"/>
					</g>
					<g>
						<path class="st26" d="M839.82,512.1c0,1.8-1.46,3.25-3.25,3.25c-1.8,0-3.25-1.46-3.25-3.25c0-1.8,1.46-3.25,3.25-3.25
							C838.36,508.85,839.82,510.31,839.82,512.1z"/>
					</g>
					<g>
						<path class="st26" d="M848.65,483.29c0,1.8-1.46,3.25-3.25,3.25s-3.25-1.46-3.25-3.25c0-1.8,1.46-3.25,3.25-3.25
							S848.65,481.49,848.65,483.29z"/>
					</g>
					<g>
						<path class="st26" d="M836.1,577.64c0,1.8-1.46,3.25-3.25,3.25c-1.8,0-3.25-1.46-3.25-3.25c0-1.8,1.46-3.25,3.25-3.25
							C834.64,574.38,836.1,575.84,836.1,577.64z"/>
					</g>
					<g>
						<path class="st26" d="M835.64,610.17c0,1.8-1.46,3.25-3.25,3.25c-1.8,0-3.25-1.46-3.25-3.25c0-1.8,1.46-3.25,3.25-3.25
							C834.18,606.92,835.64,608.38,835.64,610.17z"/>
					</g>
				</g>
				<g>
					<g>
						<g>
							<g>
								<path class="st5" d="M816.3,677.47H599.77c-4.22,0-7.65-3.42-7.65-7.65v-0.01c0-4.22,3.42-7.65,7.65-7.65H816.3
									c4.22,0,7.65,3.42,7.65,7.65v0.01C823.94,674.04,820.52,677.47,816.3,677.47z"/>
							</g>
							<g>
								<path class="st5" d="M727.15,537.53H496.52c-1.86,0-3.38-1.52-3.38-3.38v-3.83c0-1.86,1.52-3.38,3.38-3.38h230.63
									c1.86,0,3.38,1.52,3.38,3.38v3.83C730.52,536.01,729,537.53,727.15,537.53z"/>
							</g>
							<g>
								<path class="st5" d="M740.17,674.91l-19.91-143.82c-0.25-1.84,1.04-3.55,2.88-3.81l3.79-0.52c1.84-0.25,3.55,1.04,3.81,2.88
									l19.91,143.82c0.25,1.84-1.04,3.55-2.88,3.81l-3.79,0.53C742.14,678.04,740.43,676.75,740.17,674.91z"/>
							</g>
							<g>
								<path class="st3" d="M743.24,677.57H519.82c-3.65,0-7.04-2.95-7.55-6.56l-19.09-136.06c-0.32-2.26,1.29-4.11,3.58-4.11
									h223.59c3.65,0,7.04,2.95,7.55,6.56l19.07,135.9C747.29,675.64,745.62,677.57,743.24,677.57z"/>
							</g>
						</g>
					</g>
					<g>
						<path class="st4" d="M627.02,603.65c0.81,10.17,11.63,17.6,1.47,18.41c-10.17,0.81-19.07-6.78-19.88-16.94
							c-0.81-10.17,6.78-19.07,16.94-19.88C635.72,584.43,626.21,593.48,627.02,603.65z"/>
					</g>
				</g>
				<g>
					<defs>
						<path id="SVGID_13_" d="M791.63,463.63c-1.32,1.39-2.23,3.12-2.22,5.04c0.02,8.04-0.63,30.79-7.98,46.3
							c-9.07,19.12-12.95,38.87-8.28,49.53c4.67,10.66,13.51,20.1,16.09,28.99c5.58,19.28,9.17,41.16,6.8,61.95l115.13,4.99
							c0,0-3.71-43.94,17.33-107.07c10.05-30.16-8.72-89.47-5.81-107.25C922.67,446.1,847.95,404.39,791.63,463.63z"/>
					</defs>
					<clipPath id="SVGID_14_">
						<use xlink:href="#SVGID_13_"  style="overflow:visible;"/>
					</clipPath>
					<g class="st27">
						<path class="st15" d="M921.95,586.53c0,0-5.94-54.06-0.59-80.19l16.04,63.56L921.95,586.53z"/>
					</g>
				</g>
				<g>
					<g>
						<g>
							<path class="st22" d="M832.42,674.87c-4.16-0.89-9.62-1.14-13.56-2.18c-3.93-1.05-6.66-3.87-10.14-5.05
								c-3.48-1.18-8.43-0.3-11.25-1.21c-2.82-0.91-2.43-2.03-4.23-3.63c2.8-3,3.29-4.88,8.59-5.22c5.31-0.34,14.14,2.33,19.56,4.71
								C825.2,666.56,829.05,670.39,832.42,674.87z"/>
						</g>
						<g>
							<path class="st24" d="M832.42,675.31c-0.03,0-0.06,0-0.09-0.01c-1.85-0.39-4-0.67-6.09-0.93c-2.6-0.33-5.29-0.67-7.49-1.26
								c-2.2-0.58-4.03-1.7-5.79-2.79c-1.46-0.9-2.84-1.75-4.38-2.27c-1.79-0.61-4-0.65-6.13-0.69c-1.92-0.04-3.73-0.07-5.12-0.52
								c-1.96-0.63-2.5-1.39-3.12-2.26c-0.16-0.22-0.32-0.45-0.52-0.69c-0.56-0.67-0.56-1.62,0-2.26l0.55-0.64
								c1.83-2.15,3.03-3.56,7.56-3.86c0.28-0.04,0.45,0.17,0.46,0.41c0.02,0.24-0.17,0.45-0.41,0.46
								c-4.16,0.27-5.15,1.44-6.95,3.55l-0.56,0.65c-0.27,0.32-0.27,0.79,0.02,1.13c0.21,0.26,0.39,0.5,0.56,0.73
								c0.58,0.81,1,1.39,2.68,1.94c1.26,0.41,3.01,0.44,4.86,0.48c2.2,0.04,4.48,0.09,6.39,0.74c1.63,0.55,3.12,1.47,4.56,2.35
								c1.71,1.05,3.47,2.13,5.55,2.69c2.14,0.57,4.8,0.91,7.37,1.23c2.1,0.27,4.28,0.54,6.16,0.95c0.24,0.05,0.39,0.28,0.33,0.52
								C832.8,675.17,832.62,675.31,832.42,675.31z"/>
						</g>
					</g>
					<g>
						<path class="st22" d="M844.58,648.89c0,0-2.72,1.62-5.28,3.1c-1.43,0.83-3.19,0.87-4.65,0.1c-4.26-2.23-8-4.29-9.83-5.66
							c-3.19-2.38-5.26-5.46-8.76-5.4c-5.69,0.1-16.8-1.34-22.8-0.96c-5.96,0.38-11.81,6.01-15.48,8.39
							c-3.67,2.38-11.69,10.35-11.18,12.47c0.51,2.12,3.37,0.56,4.3,0.8c0.05,1.3-1.75,1.9-0.13,3.64c1.62,1.74,6.04,0.58,8.36-1.33
							c2.32-1.91,6.27-4.2,8.93-5.81c-1.24,1.42-8.47,7.11-7.62,9.08c0.84,1.97,2.93,2.27,5.88,1.23c2.95-1.03,7.14-6.06,11.37-7.09
							c4.23-1.03,10.57,0.21,15.34,0.86c7.79,8.83,14.93,12.82,23.29,13.64l9.97,0.54c1.36,0.07,2.72-0.08,4.03-0.47
							c2.96-0.88,8.17-2.57,8.82-3.77C861.12,668.58,844.58,648.89,844.58,648.89z"/>
					</g>
					<g>
						<path class="st24" d="M846.97,676.58c-0.24,0-0.47-0.01-0.71-0.02l-9.97-0.55c-8.62-0.85-15.87-4.98-23.5-13.41
							c-0.67-0.09-1.37-0.2-2.08-0.3c-4.42-0.65-9.43-1.39-12.94-0.56c-2.33,0.55-4.71,2.39-6.82,4.01
							c-1.63,1.25-3.17,2.44-4.5,2.89c-4.15,1.42-5.79-0.01-6.42-1.45c-0.63-1.42,1.62-3.79,4.66-6.57
							c-1.94,1.16-3.91,2.41-5.3,3.53c-2.37,1.91-7.17,3.26-8.96,1.23c-1.27-1.44-0.35-2.78,0.6-3.92
							c0.08-0.11,10.27-14.19,23.65-16.16c6.65-0.98,10.1-0.32,10.24-0.29c0.24,0.05,0.39,0.28,0.34,0.51
							c-0.05,0.24-0.27,0.38-0.51,0.34c-0.03-0.01-3.45-0.66-9.94,0.3c-13.01,1.93-22.99,15.7-23.09,15.84
							c-1.17,1.39-1.31,2.04-0.64,2.8c1.3,1.48,5.47,0.5,7.76-1.34c2.03-1.64,5.25-3.52,7.84-5.04l3.52-2.08l-1.84,2.08
							c-0.32,0.36-0.99,0.96-1.84,1.71c-1.86,1.66-6.2,5.53-5.7,6.69c0.71,1.61,2.51,1.94,5.34,0.98c1.19-0.41,2.68-1.55,4.25-2.76
							c2.18-1.68,4.64-3.57,7.15-4.16c3.67-0.87,8.77-0.12,13.27,0.55c0.77,0.11,1.52,0.22,2.23,0.32l0.16,0.02l0.11,0.12
							c7.52,8.34,14.62,12.42,23.03,13.25l9.95,0.54c1.32,0.07,2.63-0.07,3.88-0.43c5.82-1.67,8.23-2.89,8.55-3.46
							c0.12-0.21,0.38-0.29,0.59-0.17c0.21,0.12,0.29,0.38,0.17,0.59c-0.55,1-3.61,2.3-9.07,3.88
							C849.32,676.41,848.16,676.58,846.97,676.58z"/>
					</g>
					<g>
						<path class="st24" d="M787.54,658.83c-0.14,0-0.28-0.07-0.37-0.2c-0.13-0.2-0.07-0.47,0.13-0.6
							c0.35-0.23,8.67-5.54,11.68-6.54c3.02-1.01,9.07-1.35,9.33-1.37c0.22,0,0.45,0.17,0.46,0.41c0.01,0.24-0.17,0.45-0.41,0.46
							c-0.06,0-6.19,0.35-9.1,1.32c-2.91,0.97-11.4,6.4-11.49,6.45C787.7,658.81,787.62,658.83,787.54,658.83z"/>
					</g>
				</g>
				<g>
					<g>
						<path class="st20" d="M920.27,444.85c0,0-4.27,20.84-1.04,62.55c3.23,41.71,18.46,113.58,18.46,113.58
							s-83.58,20.64-98.61,31.19l1.49,23.17c0,0,102.34,3.87,132.05-14.93c29.15-18.44,0.56-151.01-3.79-169.73
							C961.71,460.03,920.27,444.85,920.27,444.85z"/>
					</g>
					<g>
						<g>
							<path class="st15" d="M863.23,676.35c-12.69,0-21.5-0.32-22.69-0.36l-0.59-0.02l-1.55-24.12l0.3-0.21
								c14.44-10.14,90-29.09,98.21-31.14c-1.49-7.14-15.3-73.82-18.35-113.05c-0.03-0.36,0.24-0.67,0.6-0.7
								c0.35-0.02,0.67,0.24,0.7,0.6c3.19,41.19,18.3,112.78,18.45,113.5l0.13,0.62l-0.62,0.15c-0.83,0.2-82.55,20.46-98.09,30.88
								l1.42,22.2c8.4,0.28,103.05,2.9,131.09-14.84c30.33-19.2-3.73-167.53-4.07-169.03c-0.08-0.35,0.14-0.7,0.49-0.79
								c0.36-0.08,0.7,0.14,0.79,0.49c1.43,6.15,34.61,150.74,3.5,170.43C951.82,674.35,895.22,676.35,863.23,676.35z"/>
						</g>
					</g>
				</g>
			</g>
			<g>
				<g>
					<path class="st28" d="M419.97,653.26c0,0-17.13,13.23-40.37-13.04c-23.25-26.26-49.18-111.84-49.18-111.84l16.81-36.1
						C347.21,492.28,428.54,603.67,419.97,653.26z"/>
				</g>
				<g>
					<g>
						<g>
							<g>
								<path class="st20" d="M281.69,295.07c0,0-0.18-11.47-14.16-23.75c-18.56-16.31-45.62-7.84-60.55,33.02
									c-8.36,22.85-4.24,32-12.57,41.45c-13.25,15.06-17.86,27.21-6.67,50.36c11.19,23.15-12.56,37.31-23.25,45.57
									c-10.69,8.27-14.39,56.27,19.34,74.15c10.4,5.51,35.51,19.66,35.51,19.66s64.7-30.04,48.2-65.06
									c-16.49-35.02-23.49-43.29-15.84-57.54c9.54-17.75,4.25-33.18,1.32-44.45c-2.93-11.27-22.98-45.11-15.83-58.13
									c7.15-13.02,30.23,1.27,30.23,1.27L281.69,295.07z"/>
							</g>
							<g>
								<defs>
									<path id="SVGID_15_" d="M281.69,295.07c0,0-0.18-11.47-14.16-23.75c-18.56-16.31-45.62-7.84-60.55,33.02
										c-8.36,22.85-4.24,32-12.57,41.45c-13.25,15.06-17.86,27.21-6.67,50.36c11.19,23.15-12.56,37.31-23.25,45.57
										c-10.69,8.27-14.39,56.27,19.34,74.15c10.4,5.51,35.51,19.66,35.51,19.66s64.7-30.04,48.2-65.06
										c-16.49-35.02-23.49-43.29-15.84-57.54c9.54-17.75,4.25-33.18,1.32-44.45c-2.93-11.27-22.98-45.11-15.83-58.13
										c7.15-13.02,30.23,1.27,30.23,1.27L281.69,295.07z"/>
								</defs>
								<clipPath id="SVGID_16_">
									<use xlink:href="#SVGID_15_"  style="overflow:visible;"/>
								</clipPath>
								<g class="st29">
									<path class="st15" d="M273.34,314.01c0,0,10.91-7.79-8.24-20.18c-24.85-16.08-52.17,1.63-37.48,47.31
										c10.28,31.97,5.21,43.88-7.87,58.06c-13.08,14.19-0.71,39.12,13.46,58.72c14.17,19.6-33.94,52.65-42.86,61.52
										c-8.92,8.86-23.79,28.38,18.25,42.14c42.04,13.76,71.01,39.33,79.51-29.4c8.5-68.73-23.96-116.84-26.31-122.77
										c-2.35-5.93,22.13-66.91,22.13-66.91L273.34,314.01z"/>
								</g>
							</g>
						</g>
						<g>
							<path class="st15" d="M321.66,310.01c0,0,31.88,45.14,15.81,67.02c-16.07,21.88-21.39,16.24-21.39,16.24
								S300.83,336.91,321.66,310.01z"/>
						</g>
					</g>
					<g>
						<path class="st7" d="M340.77,451.56c1.75,0.95,13.83,57.42,21.44,73.59c9.38,19.93,17.57,41.17,12.68,52.26
							c-4.89,11.09-14.13,20.88-16.83,30.13c-5.86,20.06-1.89,51.58,0.52,73.23l-4.4,1.86c-43.66,18.44-91.41,25.07-138.44,19.25
							l-11.2-1.39c0,0,7.79-79.37,8.67-135.16c0.52-33.09,9.35-93.12,6.38-111.64C219.58,453.7,283.29,420.37,340.77,451.56z"/>
					</g>
					<g>
						<path class="st6" d="M358.12,680.83l0.9-0.1l-0.37-3.31c-2.41-21.43-5.71-50.78-0.16-69.75c1.45-4.96,4.82-10.11,8.39-15.56
							c3.03-4.63,6.17-9.42,8.42-14.52c5.18-11.75-4.06-34.3-12.69-52.63c-2.6-5.52-5.93-16.09-10.5-33.28l-0.88,0.23
							c4.58,17.24,7.94,27.87,10.56,33.43c8.55,18.16,17.71,40.46,12.68,51.88c-2.22,5.03-5.34,9.79-8.35,14.39
							c-3.61,5.51-7.02,10.71-8.5,15.8c-5.6,19.15-2.29,48.6,0.13,70.11L358.12,680.83z"/>
					</g>
					<g>
						<defs>
							<path id="SVGID_17_" d="M355.95,472.34c1.37,1.45,2.31,3.26,2.3,5.25c-0.04,8.37,0.56,32.06,8.17,48.23
								c9.38,19.93,13.36,40.5,8.47,51.59c-4.89,11.09-14.13,20.88-16.83,30.13c-5.86,20.06-9.67,42.82-7.26,64.48l-119.88,4.84
								c0,0,4-45.74-17.72-111.52c-10.37-31.43,9.35-93.12,6.38-111.64C219.58,453.7,297.49,410.5,355.95,472.34z"/>
						</defs>
						<clipPath id="SVGID_18_">
							<use xlink:href="#SVGID_17_"  style="overflow:visible;"/>
						</clipPath>
						<g class="st30">
							<path class="st31" d="M219.89,599.9c0,0,6.35-56.26,0.86-83.49l-16.89,66.12L219.89,599.9z"/>
						</g>
					</g>
					<g>
						<path class="st8" d="M233.87,466.34c-1.45-10.2-12.87-15.67-21.69-10.35c-10.4,6.27-23.06,17.85-29.38,38.67
							c-4.62,15.22-2.38,110.08,11.45,156.2c4.29,14.3,16.06,12.99,28.47,4.69l2.83-20.89c0,0,2.18-58.21,7.94-116.67
							C235.96,493.02,235.35,476.76,233.87,466.34z"/>
					</g>
					<g>
						<g>
							<path class="st32" d="M338.79,466.89c-1.19-0.94-20.12,7.93-22.73,10.5c-0.31,0.31-0.84,0.89-1.45,1.59
								c2.66,1.33,7.43,3.71,10.25,5.11c3.57-2.93,7.08-5.26,8.52-6.35C336.44,475.41,341.1,468.71,338.79,466.89z"/>
						</g>
						<g>
							<g>
								<path class="st32" d="M328.54,510.98c-2.27,0.23-6.65,0.89-10.03,5.15c-2.34,2.95-7.52,7.05-8.93,8.04
									c-1.41,0.97-2.66,0.62-2.66,0.62s1.24-8.43-2.76-17.41c-1.09-2.45,2.78-6.12,2.78-6.12s5.64,4.51,7.4,4.94
									c1.76,0.44,4.19-1.28,4.47-2.33c0.28-1.06-0.5-2.95-0.5-2.95s3.2,1.5,4.48,1.49c1.27,0.01,4.32-1.89,4.12-3.13
									c-0.2-1.24-3.13-7.12-3.62-8.31c-0.48-1.19-3.71-4.94-4.43-5.22c0,0,8.08,2.65,10.15,1.96c2.07-0.69,4.03-3.92,3.07-5.04
									c-0.96-1.12-12.89-7.82-18.73-7.15c-1.22,0.14-12.67,5.31-13.54,6.49c-0.87,1.19-6.84,12.43-7.97,13.92
									c-1.15,1.5-8.66,7.7-9.35,8.82c-0.7,1.11-0.55,3.66-0.55,3.66s-6.64,16.95-9.05,23.12c-1.71,4.41-3.35,7.39-4.55,9.55
									c-1.36,2.44-2.95,4.68-4.81,6.77c-2.28,2.55-4.89,5.41-7.74,8.49c3.9,6.15,11.08,20.1,17.53,24.37
									c4.24-8.39,10.39-19.61,13.51-25.25c1.16-0.16,2.28-0.38,3.24-0.69c4.43-1.45,8.96-3.64,11.34-5.02
									c4.05-2.37,9.82-7.47,11.3-8.61c0.05-0.04,0.09-0.07,0.13-0.09c1.23-0.9,3.29-3.7,4.38-5.91c1.08-2.2,6.14-11.31,9.08-14.04
									c2.94-2.72,8.64-5.08,8.71-6.57C335.08,513.05,332.5,510.59,328.54,510.98z"/>
							</g>
							<g>
								<path class="st22" d="M314.93,506.81c1.9,0,4.06-1.6,4.38-2.79c0.17-0.63,0.04-1.46-0.14-2.13c1.09,0.46,2.7,1.06,3.6,1.06
									c0.01,0,0.01,0,0.02,0c1.09,0,3.09-1.08,4.04-2.2c0.47-0.55,0.67-1.07,0.59-1.55c-0.14-0.88-1.33-3.45-2.75-6.47
									c-0.42-0.89-0.76-1.62-0.9-1.95c-0.3-0.73-1.64-2.49-2.86-3.83c2.62,0.76,6.75,1.79,8.26,1.28
									c1.69-0.57,3.16-2.49,3.56-3.95c0.28-1.02,0.01-1.62-0.26-1.94c-1.05-1.23-13.07-8.05-19.19-7.33
									c-0.29,0.03-0.5,0.29-0.46,0.58c0.03,0.29,0.3,0.5,0.58,0.46c5.54-0.62,17.32,5.86,18.27,6.97
									c0.15,0.18,0.17,0.53,0.05,0.97c-0.32,1.18-1.58,2.8-2.88,3.23c-1.38,0.46-6.76-0.96-9.82-1.96
									c-0.27-0.09-0.57,0.06-0.66,0.32c-0.1,0.27,0.04,0.57,0.31,0.67c0.54,0.25,3.66,3.77,4.13,4.92c0.15,0.35,0.5,1.09,0.92,2
									c0.95,2.01,2.54,5.38,2.66,6.19c0.02,0.12-0.06,0.36-0.35,0.7c-0.81,0.94-2.51,1.83-3.24,1.83c0,0-0.01,0-0.01,0
									c-0.96,0-3.4-1.04-4.25-1.44c-0.2-0.09-0.43-0.05-0.59,0.1c-0.16,0.15-0.21,0.38-0.12,0.58c0.27,0.67,0.64,1.97,0.47,2.61
									c-0.22,0.79-2.39,2.32-3.83,1.95c-1.35-0.33-5.65-3.61-7.2-4.84c-0.23-0.18-0.56-0.15-0.74,0.08
									c-0.18,0.23-0.15,0.56,0.08,0.74c0.59,0.47,5.79,4.6,7.6,5.04C314.44,506.78,314.69,506.81,314.93,506.81z"/>
							</g>
							<g>
								<defs>
									<path id="SVGID_19_" d="M328.54,510.98c-2.27,0.23-6.65,0.89-10.03,5.15c-2.34,2.95-7.52,7.05-8.93,8.04
										c-1.41,0.97-2.66,0.62-2.66,0.62s1.24-8.43-2.76-17.41c-1.09-2.45,2.78-6.12,2.78-6.12s5.64,4.51,7.4,4.94
										c1.76,0.44,4.19-1.28,4.47-2.33c0.28-1.06-0.5-2.95-0.5-2.95s3.2,1.5,4.48,1.49c1.27,0.01,4.32-1.89,4.12-3.13
										c-0.2-1.24-3.13-7.12-3.62-8.31c-0.48-1.19-3.71-4.94-4.43-5.22c0,0,8.08,2.65,10.15,1.96c2.07-0.69,4.03-3.92,3.07-5.04
										c-0.96-1.12-12.89-7.82-18.73-7.15c-1.22,0.14-12.67,5.31-13.54,6.49c-0.87,1.19-6.84,12.43-7.97,13.92
										c-1.15,1.5-8.66,7.7-9.35,8.82c-0.7,1.11-0.55,3.66-0.55,3.66s-6.64,16.95-9.05,23.12c-1.71,4.41-3.35,7.39-4.55,9.55
										c-1.36,2.44-2.95,4.68-4.81,6.77c-2.28,2.55-4.89,5.41-7.74,8.49c3.9,6.15,11.08,20.1,17.53,24.37
										c4.24-8.39,10.39-19.61,13.51-25.25c1.16-0.16,2.28-0.38,3.24-0.69c4.43-1.45,8.96-3.64,11.34-5.02
										c4.05-2.37,9.82-7.47,11.3-8.61c0.05-0.04,0.09-0.07,0.13-0.09c1.23-0.9,3.29-3.7,4.38-5.91
										c1.08-2.2,6.14-11.31,9.08-14.04c2.94-2.72,8.64-5.08,8.71-6.57C335.08,513.05,332.5,510.59,328.54,510.98z"/>
								</defs>
								<clipPath id="SVGID_20_">
									<use xlink:href="#SVGID_19_"  style="overflow:visible;"/>
								</clipPath>
								<g class="st33">
									<g>
										<path class="st22" d="M288.88,507.73c0.05,0,0.09-0.01,0.14-0.02c0.04-0.01,4.1-1.11,9.08-1.85
											c3.53-0.52,4.86-2.41,4.91-4c0.07-1.82-1.43-3.38-3.72-3.89c-3.08-0.69-12.33-0.94-12.72-0.95
											c-0.3-0.01-0.53,0.22-0.54,0.51c-0.01,0.29,0.22,0.53,0.51,0.54c0.1,0,9.54,0.26,12.52,0.92c1.78,0.4,2.94,1.53,2.89,2.83
											c-0.05,1.47-1.63,2.64-4.01,2.99c-5.05,0.75-9.17,1.86-9.21,1.87c-0.28,0.08-0.45,0.37-0.37,0.65
											C288.43,507.57,288.65,507.73,288.88,507.73z"/>
									</g>
									<g>
										<path class="st22" d="M321.13,506.87c0.07,0,0.15-0.02,0.22-0.05c0.26-0.12,0.38-0.44,0.26-0.7
											c-0.2-0.44-5-10.74-7.23-13.01c-2.45-2.49-12.01-3.4-14.5-3.44c-0.02,0-0.04,0-0.05,0c-2.97,0-8.01,3.41-8.22,3.56
											c-0.24,0.16-0.3,0.49-0.14,0.73c0.16,0.24,0.49,0.3,0.73,0.14c0.05-0.03,4.99-3.42,7.66-3.38
											c3.24,0.05,11.84,1.17,13.76,3.13c2.1,2.14,6.98,12.61,7.03,12.71C320.74,506.75,320.93,506.87,321.13,506.87z"/>
									</g>
									<g>
										<path class="st22" d="M325.34,489.26c0.17,0,0.33-0.08,0.43-0.22c0.17-0.24,0.11-0.57-0.13-0.73
											c-0.32-0.22-7.91-5.48-20.33-6.79c-0.28-0.04-0.55,0.18-0.58,0.47c-0.03,0.29,0.18,0.55,0.47,0.58
											c12.13,1.28,19.75,6.55,19.83,6.6C325.13,489.23,325.23,489.26,325.34,489.26z"/>
									</g>
								</g>
							</g>
						</g>
						<g>
							<path class="st8" d="M193.07,641.79c1.15-25,20.06-34.05,39.06-57.19c21.06-25.66,35.51-45.52,35.51-45.52
								s12.01,13.18,20.13,17.09c0,0-37.61,85.97-60.86,101.5C205.62,671.89,192.28,658.81,193.07,641.79z"/>
						</g>
					</g>
					<g>
						<g>
							<g>
								<path class="st24" d="M395.68,437.42l-1.85-2.64l-0.03,0.05c-0.29-0.47-0.74-0.86-1.38-1.02l-39.4-9.82
									c-1.44-0.36-3.09,0.46-3.71,1.84l-31.06,70.37c-0.36,0.81-0.24,1.59,0.18,2.2l-0.08,0l2.14,3.08l0.38-1.87l38.26,9.54
									c1.44,0.36,3.09-0.46,3.71-1.84l30.93-70.08L395.68,437.42z"/>
							</g>
							<g>
								<path class="st19" d="M360.97,511.78l-39.4-9.82c-1.44-0.36-2.1-1.76-1.49-3.13l31.06-70.37c0.61-1.37,2.27-2.19,3.71-1.84
									l39.4,9.82c1.44,0.36,2.1,1.76,1.49,3.13l-31.06,70.37C364.06,511.32,362.4,512.14,360.97,511.78z"/>
							</g>
							<g>
								<g>
									<path class="st24" d="M362.11,448.92l-13.86-3.46c-0.55-0.14-0.81-0.69-0.57-1.23l5.98-13.57
										c0.24-0.54,0.88-0.87,1.44-0.73l13.86,3.46c0.55,0.14,0.81,0.69,0.57,1.23l-5.98,13.57
										C363.31,448.73,362.66,449.06,362.11,448.92z"/>
								</g>
								<g>
									<path class="st4" d="M366.69,435.37c-0.25,0.57-0.93,0.92-1.52,0.77c-0.59-0.15-0.86-0.73-0.6-1.3
										c0.25-0.57,0.93-0.92,1.52-0.77C366.67,434.21,366.94,434.8,366.69,435.37z"/>
								</g>
								<g>
									<g>
										<g>
											<path class="st19" d="M359.53,435.41c-0.65,1.48-2.4,2.37-3.92,2c-1.51-0.38-2.21-1.88-1.56-3.36
												c0.65-1.48,2.41-2.37,3.92-2C359.49,432.42,360.19,433.93,359.53,435.41z"/>
										</g>
										<g>
											<path class="st4" d="M358.92,435.25c-0.51,1.15-1.86,1.84-3.03,1.55c-1.17-0.29-1.71-1.46-1.21-2.6
												c0.51-1.15,1.86-1.84,3.03-1.55C358.88,432.94,359.42,434.11,358.92,435.25z"/>
										</g>
										<g>
											<path class="st19" d="M358.1,435.05c-0.31,0.7-1.14,1.13-1.86,0.95c-0.72-0.18-1.05-0.89-0.74-1.6
												c0.31-0.7,1.14-1.13,1.86-0.95C358.08,433.63,358.41,434.35,358.1,435.05z"/>
										</g>
									</g>
									<g>
										<g>
											<path class="st19" d="M356.48,442.34c-0.65,1.48-2.41,2.37-3.92,2c-1.51-0.38-2.21-1.88-1.56-3.36
												c0.65-1.48,2.4-2.37,3.92-2C356.44,439.35,357.13,440.86,356.48,442.34z"/>
										</g>
										<g>
											<path class="st4" d="M355.87,442.18c-0.51,1.15-1.86,1.84-3.03,1.55s-1.71-1.46-1.21-2.6c0.51-1.15,1.86-1.84,3.03-1.55
												C355.83,439.87,356.37,441.04,355.87,442.18z"/>
										</g>
										<g>
											<path class="st19" d="M355.04,441.98c-0.31,0.7-1.14,1.13-1.86,0.95c-0.72-0.18-1.05-0.89-0.74-1.6
												c0.31-0.7,1.14-1.13,1.86-0.95C355.02,440.56,355.35,441.28,355.04,441.98z"/>
										</g>
									</g>
									<g>
										<g>
											<path class="st19" d="M365.07,441.36c-0.65,1.48-2.41,2.37-3.92,2c-1.51-0.38-2.21-1.88-1.56-3.36
												c0.65-1.48,2.4-2.37,3.92-2C365.03,438.37,365.72,439.88,365.07,441.36z"/>
										</g>
										<g>
											<path class="st4" d="M364.46,441.2c-0.51,1.15-1.86,1.84-3.03,1.55c-1.17-0.29-1.71-1.46-1.21-2.6
												c0.51-1.15,1.86-1.84,3.03-1.55C364.42,438.89,364.96,440.06,364.46,441.2z"/>
										</g>
										<g>
											<path class="st19" d="M363.64,441c-0.31,0.7-1.14,1.13-1.86,0.95c-0.72-0.18-1.05-0.89-0.74-1.6
												c0.31-0.7,1.14-1.13,1.86-0.95C363.62,439.58,363.95,440.3,363.64,441z"/>
										</g>
									</g>
								</g>
							</g>
						</g>
						<g>
							<g>
								<g>
									<path class="st32" d="M379.8,479.78c-1.95-0.14-6.09-1.67-6.09-1.67c-3.9-7.25-13.25-12.74-20.69-14.04
										c-3.9-0.68-8.56-6.43-7.03-8.83c0.84-1.32,20.66,2.52,23.79,4.66c2.6,1.78,15.64,12.99,19.91,16.19
										c0.02,0.01,0.03,0.03,0.04,0.04C387.54,478.73,382.89,479.99,379.8,479.78z"/>
								</g>
								<g>
									<path class="st34" d="M373.46,478.24l0.49-0.26c-4.06-7.55-13.79-12.94-20.89-14.18c-2.69-0.47-5.63-3.36-6.68-5.76
										c-0.49-1.11-0.55-2.05-0.16-2.65c0.96-0.91,20.17,2.53,23.4,4.74c1.31,0.9,5.31,4.22,9.54,7.74
										c4.06,3.38,8.26,6.87,10.36,8.44l0.38-0.4l-0.05-0.05c-2.09-1.56-6.28-5.05-10.33-8.42c-4.24-3.53-8.24-6.86-9.58-7.77
										c-3.13-2.14-20.61-5.51-23.59-4.9c-0.3,0.06-0.49,0.16-0.59,0.32c-0.49,0.78-0.45,1.88,0.12,3.18
										c1.12,2.53,4.23,5.58,7.1,6.08C359.93,465.56,369.48,470.85,373.46,478.24z"/>
								</g>
								<g>
									<path class="st32" d="M375.37,486.84c-1.81-0.05-5.71-1.3-5.71-1.3c-3.9-6.56-12.76-11.26-19.7-12.17
										c-3.63-0.48-8.17-5.61-6.85-7.89c0.73-1.26,19.22,1.51,22.2,3.36c2.48,1.54,14.98,11.4,19.06,14.19
										c0.01,0.01,0.03,0.02,0.04,0.03C382.5,485.56,378.25,486.92,375.37,486.84z"/>
								</g>
								<g>
									<path class="st22" d="M384.21,483.26l0.35-0.43c-2.03-1.39-6.05-4.45-9.94-7.42c-4.06-3.09-7.9-6.01-9.17-6.81
										c-2.99-1.86-19.3-4.28-22.03-3.6c-0.28,0.07-0.46,0.18-0.55,0.33c-0.43,0.75-0.35,1.77,0.24,2.95
										c1.13,2.3,4.15,5,6.82,5.35l0.07-0.55c-2.5-0.33-5.33-2.88-6.4-5.05c-0.49-1-0.58-1.86-0.25-2.43
										c0.92-0.89,18.63,1.48,21.81,3.46c1.25,0.78,5.08,3.69,9.13,6.78C378.18,478.82,382.21,481.89,384.21,483.26z"/>
								</g>
								<g>
									<path class="st32" d="M371.3,497.46c-1.47-0.45-4.35-2.34-4.35-2.34c-1.7-6.21-7.86-12.04-13.3-14.34
										c-2.85-1.21-5.4-6.4-3.8-7.97c0.87-0.86,15.31,5.55,17.31,7.73c1.67,1.81,9.63,12.65,12.33,15.84
										C379.49,496.39,373.62,498.17,371.3,497.46z"/>
								</g>
								<g>
									<path class="st22" d="M366.68,495.19l0.53-0.15c-1.77-6.48-8.26-12.32-13.46-14.52c-1.92-0.81-3.67-3.56-4.05-5.52
										c-0.17-0.91-0.06-1.62,0.33-2c1.02-0.43,14.86,5.49,16.92,7.72c0.84,0.92,3.31,4.16,5.92,7.59
										c0.98,1.29,1.98,2.61,2.91,3.82l0.44-0.34c-0.93-1.21-1.93-2.52-2.91-3.81c-2.62-3.44-5.09-6.7-5.96-7.63
										c-2.01-2.19-14.77-7.84-17.16-7.9c-0.27,0-0.43,0.04-0.55,0.16c-0.53,0.52-0.7,1.38-0.48,2.5
										c0.41,2.14,2.26,5.03,4.37,5.92C358.62,483.18,364.95,488.87,366.68,495.19z"/>
								</g>
							</g>
							<g>
								<path class="st32" d="M382.87,469.37c-0.08,0.81-0.19,1.6-0.4,2.32c0,0-0.08-0.08-0.18-0.2l-18.82,17.25
									c1.3,2.11,2.86,4.91,3.15,6.52c0,0-7.11,13.06-7.72,23.76c-0.28,4.84,4.48,11.34,6.89,14.3c0.83,4.36,2.6,14.71,3.04,25.54
									c0.58,14.26,30.05,5.19,27.16-3.56c-2.7-8.18-7.12-17.25-10.14-24.87c1.26-6.31,5.33-34.23,9.25-45.93
									c0.33-0.99,0.41-2.03,0.25-3.07c0-0.02,0-0.04,0-0.06c-0.15-0.94-0.32-2.26-0.5-3.8L382.87,469.37z"/>
							</g>
						</g>
						<g>
							<path class="st8" d="M366.79,543.33c0,0,12.24,1.94,21.52-8.34c0,0,17.94,44.27,30.91,66.5c10.1,17.3,12.11,53.24-4.22,56.13
								c-16.33,2.89-32.49-11.45-38.53-39.9C370.43,589.26,366.79,543.33,366.79,543.33z"/>
						</g>
						<g>
							<path class="st32" d="M390.86,457.14c-1.02-3.65-13.41-21.3-14.96-21.07c-3,0.45-2.27,8.84-0.73,12.49
								c1.4,3.31,7.38,14.62,7.2,22.7l12.52,7.33C393.54,471.54,391.55,459.63,390.86,457.14z"/>
						</g>
					</g>
					<g>
						<path class="st32" d="M265.17,445.6l0.05-0.74c-0.03-1.83,0.09-3.59,0.35-5.3l4.63-69.71l26.58,5.12l10,66.26
							c0.09,0.23,0.22,0.42,0.31,0.65c5.74,14.57,1.57,29.85-9.31,34.14c-10.88,4.29-24.35-4.05-30.09-18.62
							c-1.56-3.97-2.33-7.97-2.49-11.81H265.17z"/>
					</g>
					<g>
						<defs>
							<path id="SVGID_21_" d="M265.17,445.6l0.05-0.74c-0.03-1.83,0.09-3.59,0.35-5.3l4.63-69.71l26.58,5.12l10,66.26
								c0.09,0.23,0.22,0.42,0.31,0.65c5.74,14.57,1.57,29.85-9.31,34.14c-10.88,4.29-24.35-4.05-30.09-18.62
								c-1.56-3.97-2.33-7.97-2.49-11.81H265.17z"/>
						</defs>
						<clipPath id="SVGID_22_">
							<use xlink:href="#SVGID_21_"  style="overflow:visible;"/>
						</clipPath>
						<g class="st35">
							<path class="st22" d="M305.59,420.62c0,0-23.61-0.99-31.38-7.43c0,0,5.69,15.6,25.61,20.93
								C319.75,439.45,305.59,420.62,305.59,420.62z"/>
						</g>
					</g>
					<g>
						<g>
							<path class="st32" d="M285.62,423.05L285.62,423.05c21.26,2.93,40.86-11.93,43.79-33.19l9.15-66.42l-76.98-10.6l-9.15,66.42
								C249.5,400.52,264.36,420.12,285.62,423.05z"/>
						</g>
						<g>
							<path class="st32" d="M262.15,356.96c-2.27-6.96-8.47-11.18-13.85-9.43c-5.38,1.75-7.91,8.82-5.64,15.78
								c2.27,6.96,8.47,11.19,13.85,9.43C261.9,370.99,264.42,363.93,262.15,356.96z"/>
						</g>
						<g>
							<g>
								<g>
									<path class="st4" d="M297.34,357.75c0,0-2.21-9.58-18.74-2.69C278.6,355.06,290.67,366.26,297.34,357.75z"/>
								</g>
								<g>
									<path class="st19" d="M297.32,357.81c0.01-0.04,0.02-0.07,0.03-0.11c-0.14-0.51-1.44-4.59-7.23-5.07
										c-1.21,0.73-2.11,1.95-2.33,3.46c-0.28,1.97,0.66,3.82,2.24,4.81C292.63,361.15,295.23,360.43,297.32,357.81z"/>
								</g>
								<g>
									<path class="st19" d="M297.35,358.24c-0.22,0-0.42-0.13-0.51-0.35c-0.74-1.96-2.04-3.34-3.88-4.08
										c-5.5-2.24-14.05,1.71-14.14,1.75c-0.27,0.13-0.59,0.01-0.72-0.26c-0.13-0.27-0.01-0.59,0.26-0.72
										c0.37-0.17,9.06-4.18,15-1.77c2.12,0.86,3.63,2.45,4.48,4.71c0.11,0.28-0.04,0.59-0.32,0.7
										C297.47,358.23,297.41,358.24,297.35,358.24z"/>
								</g>
							</g>
							<g>
								<g>
									<path class="st4" d="M329.69,361.95c0,0-1.98-8.56-16.74-2.4C312.95,359.55,323.74,369.55,329.69,361.95z"/>
								</g>
								<g>
									<path class="st19" d="M329.68,362c0.01-0.03,0.02-0.06,0.02-0.1c-0.13-0.46-1.29-4.1-6.46-4.53
										c-1.08,0.65-1.89,1.75-2.08,3.09c-0.25,1.76,0.59,3.41,2,4.3C325.48,364.99,327.81,364.35,329.68,362z"/>
								</g>
								<g>
									<path class="st19" d="M329.7,362.44c-0.22,0-0.42-0.13-0.51-0.35c-0.65-1.74-1.81-2.96-3.43-3.62
										c-4.89-1.99-12.51,1.52-12.58,1.56c-0.27,0.13-0.59,0.01-0.72-0.26c-0.13-0.27-0.01-0.59,0.26-0.72
										c0.33-0.15,8.12-3.75,13.45-1.58c1.91,0.78,3.27,2.2,4.04,4.24c0.11,0.28-0.04,0.59-0.32,0.7
										C329.83,362.43,329.76,362.44,329.7,362.44z"/>
								</g>
							</g>
							<g>
								<g>
									<path class="st4" d="M285.71,390.63c0,0,5.36,13.32,22.15,8.12L285.71,390.63z"/>
								</g>
								<g>
									<path class="st19" d="M300.55,400.47c-11.4,0-15.3-9.53-15.34-9.64c-0.08-0.2-0.03-0.42,0.12-0.58
										c0.15-0.15,0.37-0.2,0.57-0.13l22.15,8.12c0.22,0.08,0.36,0.29,0.35,0.52c-0.01,0.23-0.16,0.43-0.38,0.5
										C305.23,400.11,302.75,400.47,300.55,400.47z M286.78,391.6c1.64,2.93,7.01,10.09,19.3,7.08L286.78,391.6z"/>
								</g>
							</g>
							<g>
								<path class="st19" d="M307.39,384.61c-1.39,0-2.96-0.16-4.71-0.48c-0.59-0.11-0.97-0.67-0.87-1.26
									c0.11-0.59,0.67-0.98,1.26-0.87c4.55,0.84,6.88,0.34,8.03-0.23c0.15-0.07,0.19-0.26,0.19-0.31c0.02-0.12,0-0.28-0.11-0.38
									c-0.84-0.75-1.93-1.78-3.22-3.05c-3.94-3.85-3.5-13.4-3.48-13.81c0.03-0.6,0.55-1.06,1.13-1.02
									c0.6,0.03,1.05,0.54,1.02,1.13c-0.13,2.49,0.14,9.52,2.83,12.15c1.27,1.25,2.33,2.25,3.15,2.98
									c0.63,0.56,0.93,1.42,0.81,2.29c-0.12,0.86-0.63,1.59-1.38,1.96C310.85,384.32,309.28,384.61,307.39,384.61z"/>
							</g>
							<g>
								<path class="st19" d="M278.75,347.72c-0.59,0-1.07-0.47-1.08-1.06c-0.01-0.6,0.47-1.09,1.06-1.1l20.1-0.31
									c0.01,0,0.01,0,0.02,0c0.59,0,1.07,0.47,1.08,1.06c0.01,0.6-0.47,1.09-1.06,1.1l-20.1,0.31
									C278.77,347.72,278.76,347.72,278.75,347.72z"/>
							</g>
							<g>
								<path class="st19" d="M329.93,352.73c-0.02,0-0.04,0-0.05,0l-15.45-0.75c-0.6-0.03-1.06-0.54-1.03-1.13
									c0.03-0.6,0.53-1.05,1.13-1.03l15.45,0.75c0.6,0.03,1.06,0.54,1.03,1.13C330.98,352.28,330.51,352.73,329.93,352.73z"/>
							</g>
							<g class="st25">
								
									<ellipse transform="matrix(0.4004 -0.9163 0.9163 0.4004 -173.081 477.621)" class="st20" cx="278.43" cy="371.07" rx="6.87" ry="9.97"/>
							</g>
						</g>
					</g>
					<g>
						<path class="st20" d="M337.04,378.46c0,0,13.18-50.25-47.01-59.12c0,0-24.38,41.19-47.33,34.29c0,0-5.66-55.11,34.77-61.81
							c55.28-9.15,72.17,24.58,74.59,45.7C354.48,358.65,337.04,378.46,337.04,378.46z"/>
					</g>
					<g>
						<path class="st20" d="M290.23,313.17c0,0,1.08,35.86-22.96,47.94c-22.25,11.18-24.58-7.48-24.58-7.48s10.44,10.81,25.2-2.3
							C284.54,336.57,290.23,313.17,290.23,313.17z"/>
					</g>
				</g>
			</g>
		</g>
	</g>
	<g>
		<path class="st36" d="M1077.84,679.53H82.16c-1.19,0-2.16-0.97-2.16-2.16s0.97-2.16,2.16-2.16h995.68c1.19,0,2.16,0.97,2.16,2.16
			S1079.03,679.53,1077.84,679.53z"/>
	</g>
</g>
</svg>
