<?xml version="1.0" encoding="utf-8"?>
<!-- Generator: Adobe Illustrator 24.3.0, SVG Export Plug-In . SVG Version: 6.00 Build 0)  -->
<svg version="1.1" id="Layer_1" xmlns="http://www.w3.org/2000/svg" xmlns:xlink="http://www.w3.org/1999/xlink" x="0px" y="0px"
	 viewBox="0 0 4000 4000" style="enable-background:new 0 0 4000 4000;" xml:space="preserve">
<style type="text/css">
	.st0{fill:#FFFFFF;}
	.st1{fill:#FFDCB5;}
	.st2{opacity:0.3;}
	.st3{fill:#232323;}
	.st4{fill:#F5F5F5;}
	.st5{fill:#FFA42C;}
	.st6{opacity:0.5;}
	.st7{opacity:0.2;}
	.st8{fill:#7FBC2F;}
	.st9{fill:#FFECB3;}
	.st10{fill:#9E6C4B;}
	.st11{fill:#B56B52;}
	.st12{opacity:0.15;}
</style>
<g>
	<g>
		<path class="st0" d="M3974.81,3993.67H25.19c-10.42,0-18.86-8.44-18.86-18.86V25.19c0-10.42,8.44-18.86,18.86-18.86h3949.62
			c10.42,0,18.86,8.44,18.86,18.86v3949.62C3993.67,3985.23,3985.23,3993.67,3974.81,3993.67z"/>
	</g>
	<g>
		<g>
			<g>
				<path class="st1" d="M2768.68,3109.23c271.74-222.61,445.18-560.76,445.18-939.45c0-670.4-543.46-1213.86-1213.86-1213.86
					S786.14,1499.38,786.14,2169.78c0,378.69,173.44,716.84,445.18,939.45c229.92-3.82,491.37-5.99,768.68-5.99
					S2538.76,3105.41,2768.68,3109.23z"/>
			</g>
		</g>
		<g class="st2">
			<path class="st3" d="M3663.66,3156.26c0-29.28-744.84-53.02-1663.66-53.02s-1663.66,23.74-1663.66,53.02
				c0,16.93,248.9,32,636.42,41.71c83.62,18.98,407.84,33.13,795.04,33.13c324.25,0,604.33-9.92,735.93-24.29
				C3176.29,3200,3663.66,3179.94,3663.66,3156.26z"/>
		</g>
		<g>
			<g>
				<path class="st4" d="M490.34,3120.9h3019.32H490.34z"/>
			</g>
			<g>
				<path class="st3" d="M490.34,3115.45c0,0,11.79-1.85,33.91-4.03c22.11-2.18,54.55-4.69,95.83-6.14
					c41.28-1.31,91.41-2.12,148.9-2.02c57.5,0.14,122.36,1.24,193.13,1.29c283.06,0,660.48,0.01,1037.89,0.01
					c377.42,0,754.83,0,1037.89,0c70.77-0.01,135.63-0.01,193.13-0.02c28.75-0.07,55.65-0.64,80.53-0.98
					c24.88-0.36,47.73-0.27,68.37,0.23c20.64,0.52,39.07,1.23,55.1,2.39c16.03,1.12,29.67,2.53,40.73,3.88
					c22.11,2.74,33.91,5.39,33.91,5.39c3.01,0.67,4.9,3.66,4.22,6.67c-0.49,2.17-2.19,3.76-4.22,4.22c0,0-11.79,2.65-33.91,5.39
					c-11.06,1.35-24.69,2.76-40.73,3.88c-16.03,1.16-34.46,1.87-55.1,2.39c-20.64,0.5-43.49,0.59-68.37,0.23
					c-24.88-0.34-51.78-0.91-80.53-0.98c-57.5-0.01-122.36-0.01-193.13-0.02c-283.06,0-660.48,0-1037.89,0
					c-377.41,0-754.83,0.01-1037.89,0.01c-70.77,0.04-135.63,1.15-193.13,1.29c-57.5,0.1-107.62-0.71-148.9-2.02
					c-41.28-1.45-73.71-3.95-95.83-6.14c-22.11-2.18-33.91-4.03-33.91-4.03c-3.01-0.47-5.06-3.29-4.59-6.3
					C486.13,3117.62,488.04,3115.82,490.34,3115.45z"/>
			</g>
		</g>
		<g>
			<g>
				<path class="st5" d="M3349.66,3034.95c-56.21-51.52-146.92-33.56-146.92-33.56c18.15-28.83,23.23-56.86,23.12-79.44
					c-0.17-36.17-26.86-66.22-59.74-67.08c-80.67-2.1-182.15,82.38-182.15,82.38c42.16-108.18-27.78-172.34-27.78-172.34
					c-140.53-151.55-501.8,95.41-501.8,95.41c31.94-31.22,49.18-65.48,58.26-95.99c17.61-59.1-29.62-118.81-85.09-106.73
					c-57.04,12.42-115.54,54.16-149.43,81.77c2.11-61.79-0.62-120.26-11.56-163.38c-24.91-110.84-140.39-67.36-140.39-67.36
					s-170.61,60.18-205.96,136.45c-15.14-32.67-31.97-62.39-46.27-85.69c-25.8-42.04-72.62-63.83-117.4-51.73
					c-17.15,4.63-37.56,31.05-37.56,31.05s-15.29,22.38-19.07,37.28c-10.94,43.13-13.67,101.6-11.56,163.38
					c-33.89-27.61-92.39-69.34-149.43-81.77c-55.48-12.08-102.7,47.62-85.09,106.73c9.09,30.51,26.33,64.77,58.26,95.99
					c0,0-361.27-246.96-501.8-95.41c0,0-69.94,64.16-27.78,172.34c0,0-101.48-84.48-182.15-82.38
					c-32.97,0.86-59.64,31.09-59.74,67.36c-0.06,22.53,5.05,50.44,23.13,79.15c0,0-90.71-17.95-146.92,33.56
					c-56.21,51.52,28.11,87.58,257.63,82.43l960.64,0.37c0.46,0.02,0.91,0.1,1.37,0.11l146.78-0.06l146.78,0.06
					c0.46-0.02,0.91-0.09,1.37-0.11l960.64-0.37C3321.55,3122.53,3405.87,3086.47,3349.66,3034.95z"/>
				<path class="st3" d="M3134.19,3131.86c-0.01,0-0.02,0-0.03,0c-13.56,0-27.79-0.17-42.29-0.49l-959.87,0.37
					c-0.48,0.05-0.96,0.09-1.44,0.1c-0.18,0.01-0.36,0.01-0.54,0.01l-146.78-0.06l-146.76,0.06c-0.18,0-0.36,0-0.54-0.01
					c-0.49-0.02-0.96-0.06-1.44-0.1l-959.87-0.37c-14.52,0.32-28.75,0.49-42.29,0.49c-70.67,0-127.18-4.37-167.96-12.99
					c-43.56-9.21-68.42-23.16-76-42.65c-4.47-11.49-4.8-29.77,19.01-51.59c36.32-33.28,84.84-40.27,119.15-40.27
					c4.52,0,8.78,0.12,12.71,0.32c-8.43-19.85-12.66-40.77-12.6-62.48c0.11-43.79,33.03-80.27,73.37-81.32
					c1.12-0.03,2.22-0.04,3.34-0.04c55.36,0,117.36,35.46,154.58,60.78c-7.24-41.09,0.49-74.08,9.74-96.45
					c12.25-29.64,29.51-47.06,32.69-50.11c33.01-35.39,79.4-53.34,137.9-53.34c69.48,0,154.93,24.81,253.99,73.75
					c24.39,12.05,46.45,24.03,65.13,34.72c-6.94-13.28-12.6-27.25-16.95-41.86c-9.23-30.98-3.34-64.76,15.74-90.36
					c17.03-22.84,41.94-35.93,68.34-35.93c5.79,0,11.64,0.64,17.41,1.89c47.3,10.3,94.85,38.98,131.82,66.35
					c-0.46-56.61,3.77-102.85,12.62-137.73c4.27-16.82,19.37-39.23,21.08-41.73c0.15-0.23,0.32-0.45,0.48-0.66
					c3.89-5.03,24.34-30.42,44.99-36c9.35-2.53,18.98-3.81,28.63-3.81c20.41,0,40.87,5.76,59.16,16.66
					c18.08,10.77,33.71,26.35,45.2,45.07c13.24,21.58,25.28,43.09,35.94,64.2c21.09-26.92,57.33-53.88,108.16-80.42
					c46.69-24.38,88.47-39.33,91.44-40.38c2.39-0.88,25.81-9.24,54.22-9.24c54.82,0,91.95,30.72,104.55,86.5
					c8.82,34.87,13.04,81.04,12.58,137.55c36.98-27.37,84.53-56.05,131.82-66.35c5.76-1.26,11.62-1.89,17.41-1.89
					c26.4,0,51.31,13.1,68.34,35.94c19.09,25.6,24.97,59.38,15.74,90.36c-4.35,14.61-10.01,28.58-16.95,41.86
					c18.67-10.68,40.74-22.67,65.12-34.72c99.05-48.94,184.51-73.75,253.99-73.75c58.5,0,104.9,17.94,137.9,53.34
					c3.18,3.05,20.44,20.47,32.69,50.11c9.24,22.37,16.98,55.36,9.74,96.45c37.96-25.83,101.74-62.17,157.92-60.74
					c40.26,1.05,73.17,37.39,73.37,81.01c0.1,21.82-4.13,42.84-12.6,62.79c3.93-0.2,8.19-0.32,12.71-0.32
					c34.31,0,82.83,6.99,119.15,40.27c23.81,21.83,23.48,40.11,19.01,51.6c-7.58,19.49-32.44,33.44-75.99,42.65
					C3261.37,3127.49,3204.85,3131.86,3134.19,3131.86z M3092.02,3103.38c0.11,0,0.21,0,0.32,0c14.35,0.32,28.43,0.49,41.82,0.49
					c197.47,0,216.37-33.92,217.87-37.78c2.58-6.63-7.42-16.76-11.84-20.81c-29.68-27.2-70.89-32.91-100.23-32.91
					c-20.12,0-34.39,2.74-34.53,2.77c-5.48,1.07-11.08-1.22-14.24-5.83c-3.16-4.61-3.28-10.65-0.31-15.37
					c14.03-22.29,21.09-46.49,20.97-71.92c-0.13-28.65-20.81-52.49-46.1-53.14c-0.86-0.02-1.74-0.03-2.61-0.03
					c-74.11,0-169.27,78.39-170.22,79.18c-4.91,4.08-11.96,4.32-17.14,0.59c-5.18-3.73-7.18-10.49-4.86-16.44
					c15.94-40.91,16.79-79.65,2.5-115.13c-10.77-26.74-26.59-41.7-26.75-41.84c-0.28-0.26-0.5-0.48-0.76-0.76
					c-27.51-29.67-67.11-44.71-117.69-44.71c-64.14,0-147.55,24.44-241.23,70.68c-71.53,35.31-124.19,71.13-124.71,71.49
					c-5.99,4.09-14.12,2.93-18.73-2.68c-4.6-5.61-4.15-13.81,1.04-18.89c26.05-25.47,44.44-55.74,54.63-89.98
					c6.72-22.55,2.47-47.08-11.36-65.63c-11.69-15.68-28.42-24.67-45.89-24.67c-3.79,0-7.64,0.42-11.45,1.25
					c-55.43,12.07-113.74,54.64-143.57,78.94c-4.26,3.47-10.15,4.13-15.07,1.69c-4.92-2.44-7.96-7.53-7.77-13.02
					c2.31-67.59-1.44-121.24-11.14-159.46c-0.03-0.12-0.06-0.25-0.09-0.37c-9.67-43.02-35.67-64.83-77.28-64.83
					c-24.06,0-44.34,7.44-44.54,7.52c-0.07,0.03-0.18,0.06-0.25,0.09c-0.42,0.15-42.52,15.11-88.2,38.99
					c-58.66,30.67-96.59,61.84-109.71,90.15c-2.29,4.95-7.25,8.11-12.7,8.11c-5.45,0-10.41-3.17-12.7-8.11
					c-12.69-27.38-28-55.73-45.5-84.25c-18.59-30.29-48.68-48.37-80.49-48.37c-7.18,0-14.36,0.96-21.33,2.84
					c-8.5,2.3-22.73,16.6-29.88,25.76c-5.41,7.99-14.56,23.56-16.83,32.49c-9.7,38.21-13.45,91.87-11.14,159.46
					c0.19,5.49-2.85,10.58-7.77,13.02c-4.92,2.44-10.81,1.78-15.07-1.69c-29.83-24.3-88.14-66.87-143.57-78.94
					c-3.81-0.83-7.66-1.25-11.45-1.25c-17.48,0-34.21,8.99-45.89,24.67c-13.83,18.55-18.07,43.08-11.35,65.63
					c10.2,34.24,28.58,64.51,54.63,89.98c5.19,5.07,5.64,13.28,1.04,18.89c-4.6,5.61-12.73,6.78-18.73,2.68
					c-0.52-0.36-53.19-36.18-124.71-71.49c-93.68-46.24-177.09-70.68-241.23-70.68c-50.58,0-90.17,15.04-117.69,44.71
					c-0.26,0.28-0.52,0.54-0.8,0.8c-0.12,0.11-15.94,15.06-26.71,41.81c-14.28,35.48-13.44,74.22,2.5,115.13
					c2.32,5.95,0.32,12.71-4.86,16.44c-5.18,3.73-12.23,3.48-17.14-0.6c-0.95-0.79-96.11-79.18-170.22-79.18
					c-0.88,0-1.74,0.01-2.61,0.03c-25.34,0.66-46.03,24.62-46.1,53.4c-0.07,25.33,6.99,49.44,20.97,71.66
					c2.98,4.73,2.86,10.78-0.31,15.39c-3.17,4.61-8.77,6.89-14.25,5.8c-0.12-0.02-14.41-2.76-34.52-2.76
					c-29.34,0-70.55,5.71-100.23,32.91c-4.42,4.05-14.41,14.18-11.83,20.8c1.5,3.87,20.4,37.79,217.86,37.79
					c13.39,0,27.46-0.16,41.82-0.49c0.11,0,0.21,0,0.32,0l960.64,0.37c0.23,0,0.47,0.01,0.7,0.02c0.41,0.02,0.82,0.06,1.23,0.1
					l146.2-0.06l146.21,0.06c0.41-0.04,0.82-0.08,1.24-0.1c0.23-0.01,0.46-0.02,0.7-0.02L3092.02,3103.38z"/>
			</g>
			<g class="st6">
				<path class="st0" d="M2459.58,2873.3c0.5,1.86,1.35,3.66,2.65,5.24c4.6,5.61,12.73,6.78,18.73,2.68
					c3.15-2.15,284.39-192.24,436.75-129.69c-146.66-88.36-452.13,118.11-455.41,120.36
					C2461.43,2872.48,2460.52,2872.93,2459.58,2873.3z"/>
			</g>
			<g class="st7">
				<g>
					<path class="st3" d="M3349.66,3034.95c-56.21-51.52-146.92-33.56-146.92-33.56c18.15-28.83,23.23-56.86,23.12-79.44
						c-0.17-36.17-26.86-66.22-59.74-67.08c-80.67-2.1-182.15,82.38-182.15,82.38c42.16-108.18-27.78-172.34-27.78-172.34
						c-115.01-124.03-377.84,18.85-469.51,74.83c-51.69,61.59-634.23,258.41-1415.34,277.84l466.44,0.05h890.93l663.32-0.26
						c5.11,0.11,10.06,0.18,15.02,0.26h52.66C3337.67,3114.72,3399.94,3081.03,3349.66,3034.95z"/>
				</g>
			</g>
			<g class="st7">
				<g>
					<path class="st3" d="M1262.64,3088.66c50.13-95.4,9.99-174.93-21.74-216.84c0.32-0.9,0.65-1.82,0.92-2.68
						c5.17-11.83,4.42-25.37-2.07-36.43c-41.21-70.21-115.8-85.65-204.65-42.39c-5.53,2.69-10.87,5.68-16.04,8.96
						c-6.3-10.59-10.53-20.81-13.37-29.53c-14.86,16.77-58.61,76.58-23.17,167.51c0,0-17.86-14.85-44.52-31.94
						c-20.55,59.62,1.49,103.73,20.4,127.99c10.05,12.9,25.55,20.18,41.66,20.18c0.49,0,0.99-0.07,1.48-0.09
						c19.52,31.24,42.49,51.43,66.13,64.05l194.21,0.08c0.3-1.12,0.5-2.27,0.51-3.45L1262.64,3088.66z"/>
				</g>
			</g>
			<g class="st7">
				<g>
					<path class="st3" d="M2837.44,3088.12c0.39,0.01,0.79,0.07,1.19,0.07c12.19,0,23.95-5.4,31.74-15.03
						c19.13-23.68,42.79-72.89-6.16-141.57c13.6-12.18,28.78-29.41,32.44-48.07c1.96-9.99-3.53-20.12-13.07-24.09l-15.95-6.62
						c-5.78-2.39-12.32-2.2-17.94,0.56c-5.58,2.74-9.72,7.75-11.35,13.74c-1.76,6.47-5.3,16.52-11.79,27.29
						c-3.54-2.28-7.18-4.41-10.96-6.33c-66.71-33.93-123.42-23.15-155.61,29.58c-5.2,8.51-5.97,19.03-2.14,28.3
						c0.14,0.46,0.31,0.96,0.47,1.43c-24.46,31.36-55.29,90.58-19.01,162.89l-0.05,7.28l173.27-0.07
						C2821.28,3109.63,2829.68,3099.98,2837.44,3088.12z"/>
				</g>
			</g>
			<g class="st6">
				<path class="st0" d="M2290.58,2761.26c4.93,2.44,10.81,1.78,15.06-1.69c29.82-24.29,88.13-66.86,143.57-78.94
					c8.6-1.88,17.19-1.49,25.37,0.8c-12.98-9.77-28.52-13.52-44.04-10.13c-55.44,12.07-113.75,54.64-143.57,78.94
					c-1.13,0.92-2.37,1.63-3.68,2.15C2284.33,2756.18,2286.93,2759.45,2290.58,2761.26z"/>
			</g>
			<g class="st6">
				<path class="st0" d="M3209.86,3018.63c3.16,4.61,8.77,6.92,14.24,5.82c0.66-0.13,53.24-9.95,100.02,8.74
					c-44.65-27.51-103.28-20.48-116.12-18.5C3208.41,3016.07,3209.02,3017.41,3209.86,3018.63z"/>
			</g>
			<g class="st6">
				<path class="st0" d="M2989.15,2950.24c0.82,3.02,2.63,5.77,5.31,7.71c5.19,3.73,12.23,3.48,17.14-0.6
					c0.97-0.8,95.98-79.18,170.15-79.18c0.89,0,1.8,0.01,2.68,0.04c2.71,0.07,5.36,0.46,7.95,1.04
					c-7.53-6.27-16.71-10.12-26.61-10.37c-0.88-0.02-1.79-0.04-2.68-0.04c-74.17,0-169.19,78.38-170.15,79.18
					C2991.77,2948.98,2990.49,2949.71,2989.15,2950.24z"/>
			</g>
			<g class="st6">
				<path class="st0" d="M1521.89,2850.32c5.19,5.08,5.64,13.28,1.04,18.89c-2.71,3.3-6.65,5.02-10.66,5.07
					c6.51,4.18,10.25,6.71,10.6,6.94c5.99,4.09,14.12,2.92,18.72-2.68c4.6-5.61,4.15-13.81-1.04-18.89
					c-26.06-25.48-44.44-55.75-54.63-89.98c-7.51-25.2-1.35-52.51,16.07-71.3c14.33-15.44,33.49-21.92,52.62-17.75
					c15.34,3.34,30.88,9.06,45.99,16.04c-20.74-11.18-42.91-20.64-64.66-25.37c-19.14-4.17-38.3,2.31-52.62,17.75
					c-17.42,18.79-23.58,46.1-16.07,71.3C1477.45,2794.57,1495.83,2824.84,1521.89,2850.32z"/>
			</g>
			<g class="st6">
				<path class="st0" d="M633.16,3075.49c-2.67-6.64,7.36-16.82,11.8-20.89c50.18-45.99,133.93-30.31,134.75-30.15
					c5.47,1.06,11.09-1.2,14.26-5.81c3.17-4.61,3.29-10.65,0.31-15.39c-13.98-22.21-21.04-46.32-20.97-71.65
					c0.08-28.79,20.76-52.75,46.1-53.4c25.39-0.67,53.4,8.2,79.36,20.22c-30.72-16.42-66.41-30.39-98.03-29.55
					c-25.35,0.66-46.03,24.61-46.1,53.4c-0.07,25.33,6.99,49.44,20.97,71.65c2.98,4.74,2.86,10.78-0.31,15.39
					c-3.17,4.61-8.78,6.87-14.26,5.81c-0.82-0.16-84.57-15.85-134.75,30.15c-4.44,4.06-14.47,14.24-11.8,20.89
					c2.03,5.04,9.69,11.07,25.32,16.81C636.26,3080.35,634.09,3077.81,633.16,3075.49z"/>
			</g>
			<g class="st6">
				<path class="st0" d="M990.7,2948.61c-1.93,1.39-4.12,2.22-6.37,2.51c4.89,3.75,7.74,6.09,7.9,6.23
					c4.91,4.07,11.96,4.32,17.14,0.59c5.18-3.73,7.18-10.49,4.86-16.44c-37.97-97.43,21.69-154.59,24.2-156.94
					c0.28-0.26,0.55-0.52,0.8-0.8c79.52-85.77,239.96-32.01,354.23,23.8c-114.79-58.71-288.94-123.68-372.9-33.13
					c-0.26,0.28-0.52,0.54-0.8,0.8c-2.52,2.35-62.17,59.51-24.2,156.94C997.88,2938.12,995.88,2944.88,990.7,2948.61z"/>
			</g>
			<g class="st6">
				<path class="st0" d="M1926.19,2660.31c2.29,4.94,7.25,8.11,12.7,8.11s10.41-3.17,12.7-8.11
					c32.45-70.03,196.27-128.55,198.19-129.23c0.43-0.17,38.99-14.35,72.96-3.39c-2.21-1.6-4.51-3.07-6.93-4.38
					c-36.1-19.47-84.22-1.75-84.7-1.56c-1.93,0.68-165.74,59.21-198.19,129.24c-1.57,3.39-4.4,5.91-7.78,7.18
					C1925.48,2658.87,1925.86,2659.6,1926.19,2660.31z"/>
			</g>
			<g class="st6">
				<path class="st0" d="M1698.18,2759.57c4.26,3.46,10.15,4.13,15.07,1.69c4.92-2.44,7.96-7.53,7.77-13.02
					c-2.31-67.59,1.44-121.24,11.14-159.46c2.27-8.93,11.42-24.5,16.83-32.49c7.16-9.16,21.39-23.47,29.88-25.77
					c16.92-4.58,34.44-3.43,50.7,2.54c-20.91-13.55-45.72-18.28-69.36-11.88c-8.49,2.3-22.72,16.6-29.88,25.77
					c-5.41,7.99-14.56,23.56-16.83,32.49c-9.7,38.23-13.45,91.87-11.14,159.46c0.19,5.49-2.85,10.58-7.77,13.02
					c-1.39,0.69-2.86,1.1-4.34,1.31C1693.04,2755.44,1695.74,2757.58,1698.18,2759.57z"/>
			</g>
			<g class="st2">
				<path class="st3" d="M3209.71,2913.74c0,0-39.26,79.2-16.9,99.54C3192.81,3013.28,3227.25,2950.57,3209.71,2913.74z"/>
			</g>
			<g>
				<path class="st8" d="M2090.11,3013.71c0,0,107.17-102.97,166.63-120.19c15.08-4.37,30.29,6.41,31.63,22.05
					c1.42,16.54-1.17,40.87-19.67,67.4c0,0,62.06-38.58,104.29-47.18c21.05-4.29,39.55,14.94,34.26,35.76
					c-3.35,13.18-11.76,30.25-30.22,50.94c0,0,77.58-19.03,87.83,16.1c0,0,25.3,65.75-218.11,66.48l-165.42-0.51L2090.11,3013.71z"
					/>
				<path class="st3" d="M2246.74,3116.74c-0.01,0-0.02,0-0.04,0l-165.42-0.51c-3.28-0.01-6.41-1.4-8.61-3.84s-3.28-5.68-2.96-8.95
					l8.78-90.86c0.27-2.77,1.52-5.36,3.53-7.29c4.46-4.29,109.95-105.17,171.46-122.99c3.29-0.95,6.69-1.44,10.08-1.44
					c18.8,0,34.8,14.8,36.42,33.7c0.9,10.43,0.4,24.16-4.3,39.71c22.03-11.57,51.16-25.07,74.97-29.92
					c2.73-0.56,5.51-0.84,8.27-0.84c12.66,0,24.44,5.8,32.3,15.91c7.77,9.99,10.44,22.74,7.32,34.99
					c-2.62,10.31-7.48,21.01-14.51,31.99c4.96-0.44,10.22-0.73,15.54-0.73c39.34,0,52.4,15.97,56.41,29.45
					c1.07,3.31,4.02,15.77-5.8,30.12c-23.13,33.79-98.3,51.11-223.42,51.49C2246.77,3116.74,2246.75,3116.74,2246.74,3116.74z
					 M2094.17,3092.94l152.57,0.47c159.1-0.48,195.8-29.07,204.2-41.33c3.64-5.32,3.04-9.26,3.03-9.29
					c-0.12-0.3-0.22-0.61-0.31-0.92c-3.26-11.18-22.75-12.85-34.07-12.85c-19.83,0-39.59,4.76-39.79,4.81
					c-4.96,1.21-10.14-0.95-12.77-5.33c-2.63-4.38-2.11-9.96,1.29-13.77c14.77-16.56,24.07-32.05,27.62-46.05
					c1.82-7.15-1.18-12.42-3.13-14.92c-4.16-5.35-10.82-7.89-17.49-6.53c-39.67,8.08-99.86,45.28-100.46,45.65
					c-4.7,2.92-10.81,2.14-14.62-1.88c-3.81-4.02-4.27-10.16-1.11-14.7c16.74-24.01,18.82-45.74,17.62-59.73
					c-0.59-6.93-6.38-12.36-13.17-12.36c-1.2,0-2.41,0.17-3.59,0.52c-50.59,14.65-140.83,97.7-158.68,114.46L2094.17,3092.94z"/>
			</g>
			<g class="st6">
				<path class="st0" d="M2261.74,2992.33c0.02,2.88,1.06,5.75,3.16,7.96c3.81,4.02,9.93,4.8,14.62,1.88
					c0.61-0.37,60.79-37.57,100.46-45.65c6.05-1.25,11.98,0.64,16.28,5.13c-0.54-3.4-2.1-6.61-4.64-9.27
					c-4.3-4.51-10.24-6.4-16.3-5.15c-39.67,8.08-99.85,45.28-100.46,45.65C2270.74,2995.44,2265.53,2995.15,2261.74,2992.33z"/>
			</g>
			<g class="st6">
				<path class="st0" d="M2370.06,3031.81c0,2.06,0.52,4.13,1.63,5.98c2.63,4.38,7.79,6.53,12.77,5.33
					c18.06-4.4,55.96-8.74,69.42,1.85c0.19-1.35,0.08-2.17,0.08-2.19c-0.12-0.3-0.22-0.61-0.31-0.92
					c-5.3-18.2-52.94-13.13-73.86-8.03C2376.33,3034.67,2372.79,3033.85,2370.06,3031.81z"/>
			</g>
			<g class="st6">
				<path class="st0" d="M2105.97,3028.47c17.86-16.77,108.12-99.81,158.68-114.46c5.09-1.46,9.03,0.5,10.92,1.8
					c0.44,0.3,0.8,0.69,1.2,1.03c-0.01-0.09-0.01-0.19-0.02-0.28c-0.35-4.07-2.48-7.73-5.85-10.04c-1.89-1.29-5.83-3.25-10.92-1.8
					c-50.56,14.64-140.82,97.69-158.68,114.46l-7.13,73.76l5.56,0.02L2105.97,3028.47z"/>
			</g>
			<g class="st7">
				<g>
					<path class="st3" d="M2211.06,3083.06l-29.41-516.05c24.92-5.85,49.11-14.19,72.24-24.79
						c-38.51-67.14-127.71-33.59-127.71-33.59s-170.61,60.18-205.96,136.45c-3.79-8.18-7.69-16.18-11.63-23.93l-26.33,461.91
						c-0.58,10.25,3.08,20.29,10.13,27.76c2.66,2.82,5.72,5.17,9.04,7.01l81.79-0.03l146.78,0.06c0.46-0.02,0.91-0.09,1.37-0.11
						l60.69-0.02c3.25-1.83,6.24-4.14,8.85-6.9C2207.98,3103.36,2211.64,3093.32,2211.06,3083.06z"/>
				</g>
			</g>
			<g>
				<path class="st8" d="M1582.29,3096.48c80.8,22.29,349.69,11.15,349.69,11.15l11.15-149.07c0,0-104.63-91.68-174.37-109.91
					c-15-3.92-29.55,8.11-28.44,23.57c1,13.86,1.95,41.54,15.86,56.77c0,0-86.38-52.67-146.67-54.63
					c-21.56-0.7-38.79,17.92-35.92,39.3c2.54,18.88,11.63,44.98,36.56,76.94c0,0-25.01-14.71-59.53-23.29
					c-21.1-5.24-39.97,14.23-34.3,35.22C1525.4,3036.22,1544.3,3080.79,1582.29,3096.48z"/>
				<path class="st3" d="M1787.46,3122.07c-0.01,0-0.02,0-0.03,0c-103.67,0-173.73-4.83-208.25-14.35
					c-0.46-0.13-0.91-0.28-1.35-0.46c-42.18-17.42-62.86-64.92-72.78-101.7c-3.3-12.22-0.79-24.97,6.88-34.98
					c7.69-10.04,19.25-15.8,31.72-15.8c3.26,0,6.56,0.41,9.78,1.21c9.06,2.25,17.49,4.9,25.03,7.61
					c-8.83-16.58-14.34-32.77-16.44-48.38c-1.77-13.19,2.24-26.51,11.01-36.54c8.89-10.17,21.75-16,35.28-16
					c0.52,0,1.04,0.01,1.56,0.03c40.39,1.32,90.53,23.44,122.03,39.58c-1.92-9.73-2.55-19.13-3.04-26.37c-0.07-1-0.13-1.96-0.2-2.85
					c-0.69-9.58,2.54-18.74,9.09-25.78c6.53-7.02,15.72-11.04,25.21-11.04c2.92,0,5.86,0.38,8.72,1.13
					c71.58,18.71,174.75,108.61,179.1,112.42c2.76,2.42,4.22,5.99,3.95,9.64l-11.15,149.07c-0.44,5.9-5.24,10.54-11.15,10.79
					C1931.78,3119.31,1864.14,3122.07,1787.46,3122.07z M1586.09,3085.42c32.35,8.71,101.93,13.32,201.34,13.32c0,0,0.02,0,0.02,0
					c58.63,0,111.9-1.63,133.66-2.39l9.93-132.78c-20.34-17.23-106.82-88.37-165.24-103.64c-3.97-1.04-8.16,0.24-10.95,3.23
					c-2.09,2.25-3.12,5.16-2.9,8.21c0.07,0.93,0.13,1.92,0.2,2.96c0.84,12.43,2.39,35.56,12.64,46.79
					c3.92,4.29,4.08,10.8,0.39,15.29c-3.69,4.48-10.12,5.57-15.08,2.54c-0.84-0.51-84.5-51.09-140.98-52.93
					c-7.15-0.22-13.89,2.71-18.52,8.01c-4.41,5.04-6.34,11.46-5.45,18.07c2.92,21.72,14.75,46.38,34.2,71.32
					c3.44,4.42,3.26,10.66-0.43,14.87c-3.69,4.21-9.86,5.2-14.69,2.36c-0.23-0.13-24.12-14-56.43-22.02
					c-6.6-1.64-13.25,0.78-17.35,6.14c-1.89,2.47-4.78,7.66-2.88,14.72C1536.08,3030.99,1553.12,3071.37,1586.09,3085.42z"/>
			</g>
			<g class="st6">
				<path class="st0" d="M1764.8,2921.12c3.91,4.29,4.08,10.8,0.39,15.28c-1.58,1.92-3.68,3.18-5.93,3.79
					c8.69,4.76,13.98,7.96,14.19,8.09c4.95,3.02,11.38,1.94,15.08-2.55c3.69-4.48,3.53-10.99-0.39-15.28
					c-10.25-11.22-11.8-34.36-12.64-46.79l-0.2-2.95c-0.26-3.55,1.19-6.91,3.97-9.22c2.8-2.33,6.41-3.14,9.88-2.23
					c2.24,0.58,4.52,1.28,6.84,2.02c-10.52-4.93-20.72-8.88-30.17-11.35c-3.47-0.91-7.08-0.1-9.88,2.23
					c-2.78,2.31-4.22,5.66-3.97,9.22l0.2,2.95C1752.99,2886.76,1754.55,2909.9,1764.8,2921.12z"/>
			</g>
			<g class="st6">
				<path class="st0" d="M1619.35,2983.41c3.45,4.42,3.27,10.66-0.43,14.87c-1.89,2.16-4.43,3.46-7.11,3.84
					c9.77,4.39,15.65,7.79,15.76,7.86c4.83,2.83,10.99,1.85,14.69-2.36c3.69-4.21,3.87-10.45,0.43-14.87
					c-19.73-25.29-31.24-49.28-34.2-71.31c-0.91-6.76,1.12-13.28,5.71-18.36c4.64-5.14,11.28-7.96,18.27-7.73
					c17.8,0.58,38.3,6,58.06,13.17c-26.1-11.34-56.4-21.69-81.39-22.51c-6.99-0.23-13.63,2.59-18.27,7.73
					c-4.59,5.08-6.62,11.6-5.71,18.36C1588.11,2934.13,1599.62,2958.13,1619.35,2983.41z"/>
			</g>
			<g class="st6">
				<path class="st0" d="M1550.91,3008.81c-1.59-5.87,0.01-11.98,4.27-16.32c4.26-4.34,10.08-5.98,15.96-4.53
					c6.89,1.71,13.37,3.7,19.35,5.75c-10.14-4.67-25.15-10.73-42.68-15.08c-5.88-1.45-11.7,0.19-15.96,4.53
					c-4.26,4.35-5.85,10.45-4.27,16.32c8.5,31.51,25.54,71.89,58.52,85.94c3.39,0.91,7.21,1.75,11.24,2.55
					C1572.16,3070.3,1558.3,3036.21,1550.91,3008.81z"/>
			</g>
			<g class="st2">
				<path class="st3" d="M989.01,2834.02c0,0,28.26,102.25,0,113.69C989.01,2947.71,949.66,2847.12,989.01,2834.02z"/>
			</g>
			<g class="st7">
				
					<ellipse transform="matrix(0.986 -0.1669 0.1669 0.986 -442.0352 505.9537)" class="st0" cx="2788.73" cy="2882.49" rx="71.62" ry="39.68"/>
			</g>
			<g class="st7">
				
					<ellipse transform="matrix(0.8189 -0.574 0.574 0.8189 -1218.337 1542.86)" class="st0" cx="1835.39" cy="2701.8" rx="34.64" ry="62.95"/>
			</g>
			<g class="st7">
				
					<ellipse transform="matrix(0.9848 -0.1737 0.1737 0.9848 -473.286 582.4806)" class="st0" cx="3090.39" cy="2994.57" rx="30.58" ry="19.64"/>
			</g>
			<g class="st7">
				
					<ellipse transform="matrix(0.2807 -0.9598 0.9598 0.2807 -1925.6556 3137.1062)" class="st0" cx="1130.18" cy="2853.31" rx="38.2" ry="55.52"/>
			</g>
			<g class="st7">
				
					<ellipse transform="matrix(0.4513 -0.8924 0.8924 0.4513 -2167.2195 2358.5815)" class="st0" cx="834.36" cy="2941.65" rx="24.23" ry="38.01"/>
			</g>
			<g>
				<g>
					<path class="st9" d="M2660.38,2918.16c0,0-90.53,73.55-37.38,175.35l-0.16,21.65l22.43-3.47c0,0,111.03,52.04,166.89-66.4
						L2660.38,2918.16z"/>
					<path class="st3" d="M2701.14,3134.74C2701.13,3134.74,2701.13,3134.74,2701.14,3134.74c-27.09,0-49.14-7.7-57.38-11.02
						l-19.14,2.96c-3.38,0.52-6.82-0.46-9.41-2.7c-2.59-2.24-4.07-5.5-4.04-8.92l0.14-18.79c-28.03-55.88-15.53-103.59,0.07-133.95
						c16.91-32.91,40.64-52.41,41.64-53.22c4.34-3.52,10.56-3.48,14.85,0.11l151.78,127.14c4.07,3.41,5.32,9.12,3.06,13.92
						C2789.78,3120.08,2738.42,3134.74,2701.14,3134.74z M2645.26,3100.02c1.7,0,3.39,0.37,4.95,1.1
						c0.2,0.09,22.54,10.28,50.92,10.28c41.83,0,74.25-21.21,96.47-63.09l-136.81-114.6c-7.5,7.57-19.62,21.44-29.02,39.98
						c-19.01,37.5-18.48,76,1.57,114.41c0.88,1.69,1.34,3.58,1.32,5.49l-0.06,7.94l8.88-1.37
						C2644.07,3100.07,2644.67,3100.02,2645.26,3100.02z"/>
				</g>
				<g>
					<path class="st10" d="M2821.6,2856.18c-3.56,13.08-12.21,35.32-32.36,54.38l17.77,14.85c0,0,44.37-28.52,50.2-58.14
						c0.91-4.63-1.73-9.24-6.09-11.05l-15.95-6.62C2829.57,2847.27,2823.19,2850.34,2821.6,2856.18z"/>
					<path class="st3" d="M2807.01,2937.08c-2.67,0-5.33-0.92-7.48-2.72l-17.77-14.85c-2.56-2.14-4.08-5.26-4.18-8.59
						c-0.1-3.33,1.22-6.54,3.64-8.83c18.49-17.49,26.19-38.19,29.12-48.97c2.56-9.4,11.17-15.96,20.94-15.96
						c2.87,0,5.68,0.56,8.35,1.67l15.95,6.62c9.54,3.96,15.03,14.08,13.07,24.08c-6.6,33.54-50.37,62.51-55.34,65.71
						C2811.38,2936.46,2809.19,2937.08,2807.01,2937.08z M2806.27,2909.59l1.38,1.16c13.1-9.71,33.57-27.8,37.78-44.26l-13.08-5.43
						C2828.47,2874.51,2820.92,2892.53,2806.27,2909.59z"/>
				</g>
				<g class="st6">
					<path class="st0" d="M2836.48,2862.77l-4.13-1.72c-3.33,11.51-10.71,30.52-26.1,48.52l1.4,1.17c1.91-1.42,3.98-3.03,6.13-4.77
						C2826.51,2889.92,2833.19,2873.58,2836.48,2862.77z"/>
				</g>
				<g>
					<path class="st10" d="M2782.31,2884.48c-34.33-17.46-100.89-39.4-140.37,25.26c-3.37,5.52-3.73,12.38-1.09,18.29
						c8.22,29.18,62.1,107.6,162.34,133.55c11.1,2.87,22.89-0.82,30.09-9.75c18.37-22.74,39.71-68.61-12.43-135.34
						C2810.44,2903.15,2797.39,2892.15,2782.31,2884.48z"/>
					<path class="st3" d="M2810.69,3074.2L2810.69,3074.2c-3.51,0-7.01-0.45-10.42-1.33c-57.3-14.83-97.38-45.45-120.92-68.53
						c-29.2-28.63-44.82-56.67-49.5-72.38c-3.84-9.27-3.06-19.79,2.13-28.3c19.58-32.07,48.51-49.02,83.66-49.02
						c27.88,0,54.52,10.57,71.96,19.45c16.45,8.37,30.73,20.21,42.45,35.22c57.05,73.02,32.2,125.23,12.31,149.86
						C2834.64,3068.72,2823.1,3074.2,2810.69,3074.2z M2715.64,2877.97c-27.34,0-48.19,12.38-63.74,37.85
						c-1.34,2.2-1.49,4.99-0.39,7.44c0.23,0.52,0.43,1.06,0.58,1.6c3.76,13.36,19.01,38.71,43.6,62.82
						c21.5,21.08,58.12,49.06,110.43,62.6c1.5,0.39,3.04,0.58,4.57,0.58c5.32,0,10.25-2.32,13.52-6.37
						c18.98-23.5,32.21-63.54-12.55-120.83c-9.61-12.29-21.26-21.98-34.64-28.78C2761.85,2887.17,2738.89,2877.97,2715.64,2877.97z"
						/>
				</g>
				<g class="st6">
					<path class="st0" d="M2656.75,2934.2c-0.16-0.55-0.35-1.08-0.58-1.6c-1.1-2.46-0.95-5.24,0.4-7.45
						c17.24-28.24,40.34-38.02,64.06-38.02c21.08,0,42.66,7.72,61.05,17.09c13.38,6.81,25.04,16.49,34.64,28.78
						c6.71,8.59,12.09,16.78,16.37,24.6c-4.77-10.55-11.6-21.85-21.04-33.93c-9.6-12.29-21.26-21.98-34.64-28.78
						c-18.4-9.36-39.98-17.09-61.05-17.09c-23.73,0-46.82,9.78-64.06,38.02c-1.34,2.21-1.49,4.99-0.4,7.45
						c0.23,0.52,0.42,1.05,0.58,1.6c1.19,4.24,3.67,10,7.41,16.73C2658.27,2938.81,2657.35,2936.3,2656.75,2934.2z"/>
				</g>
				<g class="st7">
					<g>
						<path class="st3" d="M2840,2957.57c0,0-37.33,74.67-191.33-32.67c0,0,57.9,140.88,181.78,129.94
							C2830.45,3054.84,2865.66,3011.23,2840,2957.57z"/>
					</g>
				</g>
				<g class="st7">
					<g>
						<path class="st3" d="M2634.66,2957.57c0,0,9.03,38.39,42.81,69.61c21.93,20.27,1.15,56.2-27.17,46.72
							c-10.04-3.36-20.73-8.51-31.97-16v28l4.67,28l17.45-1.24c0,0,94.55,47.9,155.22-45.43c0,0-137.88-58.09-145.94-122.38
							L2634.66,2957.57z"/>
					</g>
				</g>
			</g>
			<g>
				<g>
					<g>
						<path class="st5" d="M899.28,2270.42c-1.77,0-3.55-0.29-5.25-0.87l-86.2-29.37c-29.79-10.15-53.84-31.29-67.73-59.54
							c-13.89-28.24-15.95-60.2-5.79-89.99c2.31-6.78,8.64-11.04,15.42-11.04c1.74,0,3.51,0.28,5.26,0.88l86.2,29.37
							c61.5,20.95,94.48,88.03,73.53,149.53c-1.39,4.09-4.36,7.46-8.23,9.37C904.21,2269.86,901.75,2270.42,899.28,2270.42z"/>
					</g>
					<g>
						<path class="st3" d="M749.72,2095.91l86.2,29.37c53.08,18.09,81.44,75.78,63.36,128.85l-86.2-29.37
							C760,2206.67,731.64,2148.98,749.72,2095.91L749.72,2095.91z M749.72,2063.31c-13.56,0-26.22,8.53-30.84,22.08
							c-11.55,33.91-9.21,70.29,6.6,102.44c15.81,32.15,43.19,56.22,77.1,67.77l86.2,29.37c3.48,1.19,7.03,1.75,10.51,1.75
							c13.56,0,26.22-8.53,30.84-22.08c11.55-33.91,9.21-70.29-6.59-102.44c-15.81-32.15-43.19-56.22-77.1-67.77l-86.2-29.37
							C756.75,2063.88,753.21,2063.31,749.72,2063.31L749.72,2063.31z"/>
					</g>
				</g>
				<g class="st6">
					<path class="st0" d="M817.26,2125.41c51.12,17.42,79.3,71.58,65.15,122.98l16.88,5.75c18.09-53.08-10.28-110.77-63.36-128.85
						l-86.2-29.37c-0.67,1.95-1.25,3.91-1.79,5.88L817.26,2125.41z"/>
				</g>
				<g class="st7">
					<g>
						<path class="st3" d="M901.7,2255.98c0,0-168.69-101.52-131.81-167.11l-35.08-11.43l-13.43,84.09l51.84,74.32l70.13,18.19
							L901.7,2255.98z"/>
					</g>
				</g>
			</g>
			<g>
				<g>
					<g>
						<path class="st5" d="M2915.98,2428.91c-28.59,0-56.16-10.41-77.64-29.32l-0.21-0.19c-6.75-5.95-7.4-16.24-1.45-22.99
							l60.36-68.55c22.31-25.34,54.48-39.87,88.27-39.87c28.59,0,56.16,10.41,77.64,29.32l0.21,0.19c6.75,5.95,7.4,16.24,1.45,22.99
							l-60.36,68.55C2981.94,2414.38,2949.77,2428.91,2915.98,2428.91z"/>
					</g>
					<g>
						<path class="st3" d="M2985.3,2284.28c23.77,0,47.63,8.32,66.88,25.26l0.2,0.18l-60.36,68.55
							c-20.01,22.73-47.96,34.35-76.04,34.35c-23.77,0-47.63-8.32-66.88-25.26l-0.2-0.18l60.36-68.55
							C2929.28,2295.89,2957.22,2284.28,2985.3,2284.28L2985.3,2284.28z M2985.31,2251.69v32.58V2251.69
							c-38.47,0-75.1,16.55-100.5,45.4l-60.36,68.55c-11.88,13.5-10.59,34.07,2.9,45.96l0.2,0.18
							c24.48,21.55,55.88,33.41,88.44,33.41c38.46,0,75.1-16.55,100.5-45.4l60.36-68.55c11.88-13.5,10.59-34.07-2.9-45.96l-0.2-0.18
							C3049.26,2263.55,3017.86,2251.69,2985.31,2251.69L2985.31,2251.69z"/>
					</g>
				</g>
				<g class="st6">
					<path class="st0" d="M2902.04,2336.12c35.69-40.54,96.52-45.8,138.56-13.02l11.78-13.38c-42.09-37.05-106.24-32.98-143.3,9.11
						l-60.18,68.35c1.55,1.36,3.14,2.65,4.74,3.91L2902.04,2336.12z"/>
				</g>
				<g class="st7">
					<g>
						<path class="st3" d="M3055.01,2308.2c0,0-158.44,116.88-204.87,57.66l-24,28.02l72.52,44.64l88.51-19.38l43.69-57.79
							L3055.01,2308.2z"/>
					</g>
				</g>
			</g>
			<g>
				<g>
					<g>
						<path class="st11" d="M1872.88,3117.85c-5.13,0-10.04-2.12-13.57-5.85s-5.36-8.75-5.07-13.88l30.32-531.92
							c-80.34-15.1-153.78-56.92-208.28-118.97c-58.89-67.05-91.32-153.05-91.32-242.16v-265.29c0-26.12,21.25-47.36,47.37-47.36
							c26.12,0,47.36,21.25,47.36,47.36v265.29c0,126.22,89.07,236.9,210.32,265.54l31.77-557.49c0.56-9.88,8.74-17.6,18.64-17.6
							h119.16c9.9,0,18.07,7.72,18.64,17.6l31.76,557.32c120.87-28.9,209.65-139.49,209.65-265.37v-265.29
							c0-26.12,21.25-47.36,47.37-47.36s47.37,21.25,47.37,47.36v265.29c0,88.98-32.35,174.9-91.09,241.91
							c-54.36,62.01-127.63,103.88-207.83,119.11l30.32,532.04c0.29,5.13-1.54,10.15-5.07,13.88c-3.53,3.73-8.43,5.85-13.57,5.85
							H1872.88z"/>
					</g>
					<g>
						<path class="st3" d="M2366.99,1911.09c15.85,0,28.7,12.85,28.7,28.7v265.29c0,175.72-130.62,321.44-299.85,345.34
							l31.28,548.77h-254.24l31.27-548.69c-169.56-23.61-300.53-169.47-300.53-345.43v-265.29c0-15.85,12.85-28.7,28.7-28.7
							c15.85,0,28.7,12.85,28.7,28.7v265.29c0,145.39,107.01,266.24,246.41,287.96l32.99-578.85h119.16l32.98,578.73
							c139.06-22.01,245.73-142.69,245.73-287.84v-265.29C2338.29,1923.94,2351.14,1911.09,2366.99,1911.09L2366.99,1911.09z
							 M2366.99,1873.76c-36.41,0-66.03,29.62-66.03,66.03v265.29c0,109.62-72.27,206.8-173.67,240.99l-30.44-534
							c-1.13-19.76-17.48-35.21-37.27-35.21h-119.16c-19.79,0-36.15,15.45-37.27,35.21l-30.45,534.25
							c-101.78-33.98-174.34-131.27-174.34-241.24v-265.29c0-36.41-29.62-66.03-66.03-66.03c-36.41,0-66.03,29.62-66.03,66.03
							v265.29c0,47.62,8.62,94.15,25.6,138.29c16.4,42.61,40.07,81.7,70.36,116.19c53.59,61.02,124.64,103.43,202.76,121.61
							l-29.4,515.9c-0.58,10.25,3.08,20.29,10.13,27.76c7.05,7.47,16.87,11.7,27.14,11.7h254.24c10.27,0,20.09-4.23,27.14-11.7
							c7.05-7.47,10.72-17.51,10.13-27.76l-29.41-516.05c77.97-18.3,148.86-60.75,202.32-121.73
							c30.21-34.47,53.83-73.52,70.18-116.09c16.95-44.1,25.54-90.57,25.54-138.12v-265.29
							C2433.02,1903.38,2403.4,1873.76,2366.99,1873.76L2366.99,1873.76z"/>
					</g>
				</g>
				<g class="st6">
					<path class="st0" d="M1927.24,2493.04l32.99-578.85h-19.81l-32.77,575.02C1914.11,2490.68,1920.63,2492.01,1927.24,2493.04z"/>
				</g>
				<g class="st6">
					<path class="st0" d="M2112.38,2492.92c139.06-22.01,245.73-142.69,245.73-287.84v-265.29c0-12.36,7.83-22.87,18.79-26.91
						c-3.09-1.14-6.42-1.79-9.91-1.79c-15.85,0-28.7,12.85-28.7,28.7v265.29c0,138.25-96.79,254.22-226.14,283.97L2112.38,2492.92z"
						/>
				</g>
				<g class="st6">
					<path class="st0" d="M1917.22,2668.92l6.75-118.42c-169.56-23.61-300.53-169.47-300.53-345.43v-265.29
						c0-12.36,7.83-22.87,18.79-26.91c-3.09-1.14-6.42-1.79-9.91-1.79c-15.85,0-28.7,12.85-28.7,28.7v265.29
						c0,175.95,130.97,321.82,300.53,345.43l-6.19,108.63l-7.14,125.22l-17.94,314.84h19.81l18.39-322.62
						c10.04-10.48,17.51-29.98,18.86-52.73C1931.31,2700.87,1926.1,2680.46,1917.22,2668.92z"/>
				</g>
				<g>
					<g>
						<g>
							<path class="st5" d="M1367.78,2153.55c-61.83,0-119.88-25.93-163.46-73c-43.21-46.68-67-108.64-67-174.48
								s23.79-127.8,67-174.48c43.58-47.08,101.63-73,163.46-73h2.71c-14.16-41.26-21.32-84.52-21.32-128.99
								c0-99.53,35.94-193.17,101.2-263.68c31.86-34.42,69-61.46,110.38-80.37c38.4-17.55,78.95-27.36,120.73-29.25
								c-3.07-19.35-4.61-38.92-4.61-58.41c0-92.58,33.44-179.69,94.15-245.28c29.65-32.03,64.21-57.19,102.72-74.79
								c39.99-18.27,82.47-27.54,126.27-27.54s86.28,9.27,126.27,27.54c38.51,17.6,73.07,42.76,102.72,74.79
								c60.71,65.59,94.15,152.7,94.15,245.28c0,19.49-1.55,39.06-4.61,58.41c41.78,1.89,82.33,11.7,120.73,29.25
								c41.38,18.91,78.52,45.95,110.38,80.37c65.26,70.51,101.2,164.15,101.2,263.68c0,44.46-7.16,87.73-21.32,128.99h2.71
								c61.83,0,119.88,25.93,163.46,73c43.21,46.68,67,108.64,67,174.48c0,65.84-23.79,127.8-67,174.48
								c-43.58,47.08-101.63,73-163.46,73H1367.78z"/>
						</g>
					</g>
					<g>
						<g>
							<path class="st3" d="M2000,768.91c168.18,0,304.53,147.29,304.53,328.99c0,26.49-2.98,52.22-8.45,76.9
								c2.51-0.06,5.01-0.21,7.53-0.21c181.49,0,328.61,158.94,328.61,355.01c0,52.69-10.71,102.64-29.77,147.61h29.77
								c117,0,211.84,102.46,211.84,228.86v0c0,126.4-94.85,228.86-211.84,228.86H1367.78c-117,0-211.84-102.47-211.84-228.86v0
								c0-126.4,94.85-228.86,211.84-228.86h29.77c-19.06-44.96-29.77-94.92-29.77-147.61c0-196.07,147.12-355.01,328.61-355.01
								c2.53,0,5.02,0.14,7.53,0.21c-5.47-24.68-8.45-50.41-8.45-76.9C1695.47,916.2,1831.82,768.91,2000,768.91L2000,768.91z
								 M2000,731.67c-46.49,0-91.58,9.83-134.01,29.22c-40.76,18.63-77.32,45.23-108.65,79.08
								c-31.14,33.64-55.57,72.77-72.61,116.29c-17.58,44.9-26.49,92.56-26.49,141.63c0,13.77,0.74,27.57,2.2,41.31
								c-37.05,3.86-73.05,13.7-107.43,29.41c-43.63,19.94-82.76,48.42-116.3,84.66c-33.35,36.03-59.52,77.94-77.77,124.57
								c-18.84,48.11-28.39,99.17-28.39,151.76c0,38.12,5.04,75.42,15.01,111.4c-26.13,2.46-51.51,9.26-75.71,20.32
								c-29.73,13.58-56.37,32.97-79.19,57.62c-22.63,24.45-40.38,52.86-52.75,84.47c-12.75,32.56-19.21,67.1-19.21,102.66
								c0,35.56,6.46,70.1,19.21,102.66c12.37,31.6,30.12,60.02,52.75,84.47c22.82,24.65,49.46,44.04,79.19,57.62
								c31.01,14.17,63.96,21.35,97.94,21.35h1264.44c33.98,0,66.93-7.18,97.94-21.35c29.73-13.58,56.37-32.97,79.19-57.62
								c22.63-24.45,40.38-52.87,52.75-84.47c12.75-32.56,19.21-67.1,19.21-102.66c0-35.56-6.46-70.1-19.21-102.66
								c-12.37-31.6-30.12-60.02-52.75-84.47c-22.82-24.65-49.46-44.04-79.19-57.62c-24.2-11.06-49.58-17.86-75.71-20.32
								c9.97-35.99,15.01-73.28,15.01-111.4c0-52.59-9.55-103.65-28.39-151.76c-18.25-46.62-44.42-88.53-77.77-124.57
								c-33.54-36.24-72.67-64.72-116.3-84.66c-34.38-15.71-70.38-25.55-107.43-29.41c1.46-13.74,2.2-27.54,2.2-41.31
								c0-49.08-8.91-96.73-26.49-141.63c-17.04-43.53-41.47-82.65-72.61-116.29c-31.33-33.85-67.88-60.45-108.65-79.08
								C2091.58,741.5,2046.49,731.67,2000,731.67L2000,731.67z"/>
						</g>
					</g>
				</g>
				<g class="st6">
					<path class="st0" d="M2000,768.91c-49.07,0-95.4,12.62-136.45,34.89c-59.16,32.1-107.29,84.37-136.64,148.52
						c-20.09,43.9-31.43,93.3-31.43,145.58c0,26.49,2.98,52.22,8.45,76.9c-2.51-0.06-5.01-0.21-7.53-0.21
						c-181.49,0-328.61,158.94-328.61,355.01c0,52.69,10.71,102.64,29.77,147.61h-29.77c-117,0-211.84,102.47-211.84,228.86v0
						c0,89.04,47.1,166.14,115.82,203.98c-52.22-41.68-86.1-108.64-86.1-184.17v0c0-126.4,94.85-228.86,211.84-228.86h29.77
						c-19.06-44.96-29.77-94.92-29.77-147.61c0-196.07,147.12-355.01,328.61-355.01c2.53,0,5.02,0.14,7.53,0.21
						c-5.47-24.68-8.45-50.41-8.45-76.9c0-61.46,15.64-118.95,42.8-168.17c18.78-6.9,39.45-20.25,58.18-38.98
						c23.61-23.61,38.72-50.29,43.01-72.39c46.62-31.32,101.61-49.46,160.55-49.46c52.17,0,101.26,14.19,144.18,39.17
						C2124.59,790.75,2064.67,768.91,2000,768.91z"/>
				</g>
				<g>
					<path class="st3" d="M1666.55,1795.11c-7.01,0-13.49-4.55-15.63-11.61c-7.39-24.45-4.82-50.31,7.24-72.82
						c12.06-22.51,32.16-38.98,56.61-46.37c50.47-15.26,103.93,13.39,119.19,63.85c2.61,8.63-2.27,17.75-10.91,20.36
						c-8.63,2.61-17.75-2.27-20.36-10.91c-10.05-33.22-45.25-52.08-78.47-42.04c-16.09,4.87-29.33,15.71-37.27,30.53
						c-7.94,14.82-9.63,31.85-4.77,47.94c2.61,8.63-2.27,17.75-10.91,20.36C1669.71,1794.88,1668.11,1795.11,1666.55,1795.11z"/>
				</g>
				<g class="st2">
					<g>
						
							<ellipse transform="matrix(0.6083 -0.7937 0.7937 0.6083 -706.7593 2059.9404)" class="st0" cx="1733.72" cy="1746.05" rx="36.42" ry="20.54"/>
					</g>
				</g>
				<g>
					<path class="st3" d="M2131.18,1357.44c-1.03,0-2.07-0.1-3.11-0.3c-8.86-1.71-14.65-10.28-12.94-19.13
						c2.49-12.91-0.19-26.01-7.56-36.9c-7.37-10.89-18.53-18.26-31.44-20.75c-26.65-5.14-52.5,12.35-57.65,39
						c-1.71,8.86-10.28,14.65-19.13,12.94c-8.86-1.71-14.65-10.28-12.94-19.13c8.55-44.33,51.58-73.44,95.91-64.88
						c21.47,4.14,40.05,16.4,52.3,34.52c12.25,18.11,16.72,39.92,12.58,61.39C2145.69,1352.01,2138.85,1357.44,2131.18,1357.44z"/>
				</g>
				<g class="st2">
					<g>
						
							<ellipse transform="matrix(0.9079 -0.4193 0.4193 0.9079 -364.4538 987.1199)" class="st0" cx="2063.78" cy="1322.81" rx="31.57" ry="18.49"/>
					</g>
				</g>
				<g class="st7">
					<g>
						<path class="st3" d="M2647.73,1677.89l-30.52-30.13l-2.02-5.33c11.02-35.44,17.03-73.37,17.03-112.82
							c0-196.07-147.12-355.01-328.61-355.01c-2.53,0-5.02,0.14-7.53,0.21c5.47-24.68,8.45-50.41,8.45-76.9
							c0-181.7-136.34-328.99-304.53-328.99c-22.98,0-45.34,2.84-66.87,8.05c136,32.94,237.66,164.07,237.66,320.94
							c0,26.49-2.98,52.22-8.45,76.9c2.51-0.06,5.01-0.21,7.53-0.21c181.49,0,328.61,158.94,328.61,355.01
							c0,8.26-0.36,16.43-0.87,24.55c-26.17,127.42-193.05,529.03-1257.09,532.42l30.48,41.18l54.49,14.86h1292.81l7.47-7.68h6.46
							c117,0,211.84-102.47,211.84-228.86v0C2844.06,1785.32,2757.48,1686.48,2647.73,1677.89z"/>
					</g>
				</g>
				<g class="st7">
					<g>
						<polygon class="st3" points="1580.57,2174.81 1590.48,2219.39 1684.59,2254.07 1684.59,2155 1590.48,2150.05 						"/>
					</g>
				</g>
				<g class="st7">
					<g>
						<polygon class="st3" points="2323.57,2155 2323.57,2209.49 2417.68,2239.21 2412.73,2159.95 						"/>
					</g>
				</g>
				<g class="st12">
					
						<ellipse transform="matrix(0.7071 -0.7071 0.7071 0.7071 -534.1835 1554.6404)" class="st0" cx="1609.53" cy="1422.14" rx="155.82" ry="88.15"/>
				</g>
				<g class="st7">
					<g>
						<path class="st3" d="M2207.67,2535.23c0,0-112-4.67-98-65.33l-22.81-194.52l13.81,3.45l-9.91-128.79l-183.27,9.91l-4.95,69.35
							l72.27,18.07c37.77,9.44,64.53,43.05,65.17,81.99c3.65,219.45-5.03,763.6-179.98,782.21h287l-32.67-548.33L2207.67,2535.23z"
							/>
					</g>
				</g>
			</g>
			<g class="st2">
				<g>
					
						<ellipse transform="matrix(0.7416 -0.6709 0.6709 0.7416 -631.4554 1886.1422)" class="st3" cx="2132.49" cy="1762.7" rx="93.15" ry="41"/>
				</g>
			</g>
			<g class="st2">
				<g>
					
						<ellipse transform="matrix(0.7071 -0.7071 0.7071 0.7071 -427.4239 2077.8801)" class="st3" cx="2294.51" cy="1554.89" rx="41" ry="93.15"/>
				</g>
			</g>
			<g class="st7">
				<g>
					<path class="st3" d="M1832,2882.9c0,0-9.33,205.33-275.33,186.67l25.67,25.67l279.88,13.97l-3.36-210.65L1832,2882.9z"/>
				</g>
			</g>
			<g class="st7">
				<g>
					<path class="st3" d="M2389.36,2950.44c0,0-53.36,109.79-235.36,128.46l-7,30.33c0,0,275.33,18.67,322-65.33
						c0,0-8.51-16.6-8.92-15.3s-84.41-8.04-84.41-8.04S2431.06,2968.98,2389.36,2950.44z"/>
				</g>
			</g>
			<g>
				<g>
					<path class="st9" d="M1165.58,2850.59c0,0,118.92,100.09,45.76,234.5l-0.28,28.85l-29.8-5.14c0,0-149.14,66.78-220.84-92.32
						L1165.58,2850.59z"/>
					<path class="st3" d="M1109.6,3136.71c-50.35,0-119.32-19.86-161.95-114.48c-2.61-5.8-0.99-12.64,3.96-16.64l205.17-165.9
						c5.22-4.22,12.69-4.14,17.82,0.17c1.31,1.1,32.23,27.42,53.86,71.37c19.96,40.55,35.4,104.03-3.15,177.41l-0.25,25.42
						c-0.04,4.1-1.88,7.99-5.03,10.61c-3.15,2.63-7.3,3.74-11.35,3.04l-25.86-4.46C1172.54,3127.25,1144.39,3136.71,1109.6,3136.71z
						 M977.79,3020.43c29.41,58.59,73.71,88.28,131.81,88.28c37.17,0,65.64-12.56,65.93-12.69c2.54-1.14,5.36-1.49,8.1-1.02
						l13.59,2.34l0.12-12.4c0.02-2.29,0.61-4.54,1.7-6.56c28.04-51.52,29.49-103.59,4.29-154.78c-12.6-25.6-28.86-44.49-38.51-54.41
						L977.79,3020.43z"/>
				</g>
				<g>
					<path class="st10" d="M953.29,2768.36c5.06,17.82,16.3,45.17,40.77,69.13l-24.02,19.38c0,0-53.3-35.57-64.28-73.27
						c-2.54-8.73,2.05-17.95,10.51-21.29l11.96-4.72C939.52,2753.13,950.45,2758.38,953.29,2768.36z"/>
					<path class="st3" d="M970.04,2870.87c-2.7,0-5.41-0.78-7.77-2.36c-2.35-1.57-57.69-38.89-69.95-81
						c-4.59-15.75,3.5-32.18,18.81-38.23l11.96-4.72c4.33-1.71,8.8-2.58,13.26-2.58c14.36,0,26.58,9.06,30.41,22.55
						c4.78,16.83,15.09,41.41,37.1,62.95c2.86,2.8,4.38,6.68,4.19,10.67c-0.19,3.99-2.08,7.71-5.19,10.22l-24.02,19.38
						C976.28,2869.82,973.16,2870.87,970.04,2870.87z M936.34,2769.99c-0.93,0-1.93,0.21-2.98,0.62l-11.96,4.72
						c-1.75,0.69-2.72,2.6-2.21,4.35c6.56,22.54,33.69,46.92,50.34,59.59l4.05-3.27c-19.19-22.73-28.9-46.66-33.78-63.82
						C939.28,2770.27,937.41,2769.99,936.34,2769.99z"/>
				</g>
				<g class="st6">
					<path class="st0" d="M923.87,2779.68c-0.51-1.75,0.46-3.66,2.21-4.35l11.96-4.72c0.14-0.06,0.28-0.08,0.42-0.13
						c-0.04-0.02-0.06-0.05-0.09-0.07c-0.57-0.28-1.25-0.42-2.01-0.42c-0.92,0-1.94,0.21-2.99,0.62l-11.96,4.72
						c-1.75,0.69-2.72,2.6-2.21,4.35c6.56,22.54,33.69,46.93,50.34,59.6l2.29-1.84C955.09,2824.35,930.13,2801.19,923.87,2779.68z"
						/>
				</g>
				<g>
					<path class="st10" d="M1003.89,2802.91c46.14-22.47,135.34-50.17,186.44,36.89c4.37,7.44,4.69,16.58,1.03,24.39
						c-11.62,38.7-85.22,141.93-219.38,174.19c-14.86,3.57-30.48-1.63-39.87-13.68c-23.95-30.73-51.33-92.33,19.69-180.05
						C965.98,2827.13,983.63,2812.78,1003.89,2802.91z"/>
					<path class="st3" d="M962.65,3053.49c-16.43,0-31.59-7.36-41.59-20.18c-25.65-32.91-57.17-102.32,19.85-197.46
						c15.82-19.54,34.95-34.86,56.85-45.52c22.59-11,57.07-24.12,93.05-24.12c21.98,0,42.12,4.86,59.87,14.45
						c20.57,11.12,37.98,28.63,51.72,52.05c6.49,11.06,7.24,24.6,2.08,36.43c-6.5,20.63-27.82,57.4-67.24,94.72
						c-31.76,30.07-85.64,69.77-162,88.13C971.12,3052.99,966.88,3053.49,962.65,3053.49z M1090.81,2794.2
						c-30.65,0-60.85,11.58-80.79,21.29c-18.19,8.86-34.12,21.63-47.35,37.97c-61.6,76.09-44.62,130.44-19.53,162.63
						c4.65,5.97,11.76,9.4,19.5,9.4c2.03,0,4.06-0.24,6.05-0.72c70.35-16.92,120.01-53.51,149.29-81.24
						c33.52-31.75,54.58-65.47,59.96-83.37c0.2-0.65,0.44-1.29,0.73-1.91c1.74-3.71,1.58-7.96-0.42-11.36
						C1157.45,2811.44,1128.85,2794.2,1090.81,2794.2z"/>
				</g>
				<g class="st6">
					<path class="st0" d="M982.71,3020.1c-9.62,2.32-19.64-1.09-25.56-8.68c-25.09-32.19-42.07-86.54,19.53-162.63
						c13.23-16.33,29.16-29.11,47.35-37.97c7.59-3.7,15.58-7.17,23.82-10.22c-13.2,3.88-25.98,9.12-37.82,14.89
						c-18.19,8.86-34.12,21.63-47.35,37.97c-61.6,76.09-44.62,130.44-19.53,162.63c5.91,7.59,15.93,11.01,25.56,8.68
						c12.28-2.95,24-6.51,35.18-10.54C997.01,3016.37,989.97,3018.36,982.71,3020.1z"/>
				</g>
				<g class="st7">
					<g>
						<path class="st3" d="M1024.67,2798.9c0,0,172.67,46.67,32.67,191.33c0,0,133-44.33,142.33-151.67
							C1199.67,2838.57,1136.41,2753.9,1024.67,2798.9z"/>
					</g>
				</g>
				<g class="st7">
					<g>
						<path class="st3" d="M1202,2906.23c0,5.82-29.03,58.81-73.51,100.15c-26.07,24.23-6.78,67.63,28.67,64.56
							c27.78-2.41,54.22-10.55,71.81-29.32l-15.3,44.28l2.62,25.44L1181,3099.9c0,0-149.79,77.76-205.56-61.45
							c0,0,158.43-51.7,212.33-158.45L1202,2906.23z"/>
					</g>
				</g>
			</g>
		</g>
	</g>
</g>
</svg>
